<?xml version="1.0" encoding="UTF-8" standalone="no" ?>
<!DOCTYPE svg PUBLIC "-//W3C//DTD SVG 1.1//EN" "http://www.w3.org/Graphics/SVG/1.1/DTD/svg11.dtd">
<svg xmlns="http://www.w3.org/2000/svg" xmlns:xlink="http://www.w3.org/1999/xlink" version="1.1" width="1080" height="1080" viewBox="0 0 1080 1080" xml:space="preserve">
<desc>Created with Fabric.js 4.2.0</desc>
<defs>
</defs>
<g transform="matrix(1 0 0 1 540 540)" id="d9741da0-2195-4d03-b509-8dc5a41ecd5f"  >
<rect style="stroke: none; stroke-width: 1; stroke-dasharray: none; stroke-linecap: butt; stroke-dashoffset: 0; stroke-linejoin: miter; stroke-miterlimit: 4; fill: rgb(255,255,255); fill-rule: nonzero; opacity: 1;" vector-effect="non-scaling-stroke"  x="-540" y="-540" rx="0" ry="0" width="1080" height="1080" />
</g>
<g transform="matrix(1 0 0 1 540 540)" id="5ea442e8-e8da-4f40-b25f-8f114672fb86"  >
</g>
<g transform="matrix(27.01 0 0 27.01 540 540)" id="993a7f8b-7cba-44e4-9465-788e7a635092"  >
<path style="stroke: rgb(0,0,0); stroke-width: 0; stroke-dasharray: none; stroke-linecap: butt; stroke-dashoffset: 0; stroke-linejoin: miter; stroke-miterlimit: 4; fill: rgb(0,0,0); fill-rule: nonzero; opacity: 1;" vector-effect="non-scaling-stroke"  transform=" translate(-8, -16)" d="M 15.477 24.479 C 13.352 22.535 5.9190000000000005 25.807 4.8580000000000005 24.391 C 3.7960000000000003 22.974999999999998 8.377 21.892999999999997 9.337 19.436 C 9.82 18.198999999999998 9.048 16.820999999999998 8.733 15.64 C 10.464 15.411000000000001 11.968 15.111 12.379000000000001 14.835 C 13.170000000000002 14.308000000000002 13.567000000000002 10.344000000000001 13.721000000000002 8.356000000000002 L 14.682000000000002 8.199000000000002 C 14.682000000000002 8.199000000000002 15.424000000000003 5.266000000000002 14.682000000000002 5.102000000000002 C 13.940000000000001 4.939000000000002 13.037000000000003 4.915000000000002 12.057000000000002 4.988000000000002 C 12.110000000000003 3.6270000000000024 12.131000000000002 1.4180000000000024 11.742000000000003 0.9120000000000026 C 11.166000000000002 0.1680000000000026 10.397000000000002 -0.3219999999999974 9.742000000000003 0.25900000000000256 C 9.107 0.818 9.404 5.054 9.43 5.362 C 8.035 5.638 6.6049999999999995 6.029 5.293 6.452 C 5.3580000000000005 5.386 5.506 2.1559999999999997 4.9590000000000005 1.6719999999999997 C 4.304 1.0919999999999996 3.5350000000000006 1.5819999999999996 2.9600000000000004 2.3259999999999996 C 2.435 3.002 2.648 6.722 2.692 7.39 C 1.167 8.007 0.135 8.565 0.079 8.816 C -0.09799999999999999 9.612 0.079 10.586 0.079 10.586 L 1.492 10.355 C 1.4969999999999999 11.828000000000001 1.577 15.321000000000002 2.203 15.807 C 2.5549999999999997 16.081 4.382 16.06 6.398999999999999 15.891 C 6.438999999999999 16.859 6.844999999999999 18.257 6.247999999999999 19.243 C 5.689 20.164 -0.03 21.3 1.492 25.63 C 2.612 28.817 10.933 25.718999999999998 12.082999999999998 26.779 C 13.233999999999998 27.841 10.342999999999998 32 10.342999999999998 32 L 12.465999999999998 32 C 12.466 32 17.6 26.425 15.477 24.479 z" stroke-linecap="round" />
</g>
<g transform="matrix(1 0 0 1 511.25 543.89)"  >
<path style="stroke: rgb(235,228,228); stroke-width: 30; stroke-dasharray: none; stroke-linecap: round; stroke-dashoffset: 0; stroke-linejoin: round; stroke-miterlimit: 10; fill: none; fill-rule: nonzero; opacity: 1;" vector-effect="non-scaling-stroke"  transform=" translate(-511.25, -543.89)" d="M 239.01761904761904 161.97000581287202 Q 239.04761904761904 162.00000581287202 240 162.00000581287202 Q 240.95238095238093 162.00000581287202 241.90476190476187 162.95238676525298 Q 242.85714285714283 163.90476771763392 245.7142857142857 165.80952962239581 Q 248.57142857142856 167.71429152715774 250.47619047619048 169.61905343191964 Q 252.38095238095238 171.52381533668154 253.33333333333331 172.4761962890625 Q 254.28571428571428 173.42857724144343 259.04761904761904 179.14286295572916 Q 263.8095238095238 184.85714867001488 267.6190476190476 188.6666724795387 Q 271.4285714285714 192.4761962890625 275.2380952380952 198.19048200334822 Q 279.04761904761904 203.90476771763392 280.95238095238096 204.85714867001485 Q 282.85714285714283 205.80952962239581 286.66666666666663 210.57143438430057 Q 290.4761904761905 215.33333914620533 294.2857142857143 220.0952439081101 Q 298.0952380952381 224.85714867001488 299.04761904761904 227.71429152715774 Q 300 230.57143438430057 300.95238095238096 231.52381533668154 Q 301.90476190476187 232.4761962890625 303.8095238095238 234.3809581938244 Q 305.7142857142857 236.2857200985863 306.66666666666663 238.1904820033482 Q 307.6190476190476 240.0952439081101 309.5238095238095 243.9047677176339 Q 311.4285714285714 247.7142915271577 315.2380952380952 253.4285772414434 Q 319.04761904761904 259.14286295572913 323.8095238095238 265.8095296223958 Q 328.57142857142856 272.4761962890625 333.3333333333333 277.23810105096726 Q 338.0952380952381 282.000005812872 340 285.8095296223958 Q 341.90476190476187 289.6190534319196 344.7619047619047 292.4761962890625 Q 347.6190476190476 295.33333914620533 349.5238095238095 298.19048200334817 Q 351.4285714285714 301.04762486049106 353.3333333333333 302.952386765253 Q 355.23809523809524 304.85714867001485 355.23809523809524 305.8095296223958 Q 355.23809523809524 306.7619105747768 356.19047619047615 307.7142915271577 Q 357.1428571428571 308.66667247953865 357.1428571428571 309.6190534319196 Q 357.1428571428571 310.5714343843006 358.0952380952381 313.42857724144346 Q 359.04761904761904 316.2857200985863 360.95238095238096 319.14286295572913 Q 362.85714285714283 322.000005812872 364.7619047619047 324.8571486700149 Q 366.66666666666663 327.71429152715774 370.4761904761905 333.42857724144346 Q 374.2857142857143 339.14286295572913 376.19047619047615 342.000005812872 Q 378.0952380952381 344.85714867001485 379.04761904761904 346.7619105747767 Q 380 348.66667247953865 382.85714285714283 351.52381533668154 Q 385.71428571428567 354.38095819382437 387.6190476190476 358.19048200334817 Q 389.5238095238095 362.000005812872 392.3809523809524 364.8571486700149 Q 395.23809523809524 367.71429152715774 396.19047619047615 370.5714343843006 Q 397.1428571428571 373.4285772414434 398.0952380952381 374.38095819382437 Q 399.04761904761904 375.33333914620533 401.9047619047619 378.19048200334817 Q 404.76190476190476 381.04762486049106 406.66666666666663 383.90476771763394 Q 408.57142857142856 386.7619105747768 412.38095238095235 392.4761962890625 Q 416.19047619047615 398.19048200334817 417.1428571428571 400.0952439081101 Q 418.0952380952381 402.000005812872 420 403.90476771763394 Q 421.90476190476187 405.8095296223958 423.80952380952374 409.6190534319196 Q 425.71428571428567 413.4285772414434 427.6190476190476 417.2381010509672 Q 429.5238095238095 421.04762486049106 432.3809523809524 424.85714867001485 Q 435.23809523809524 428.66667247953865 438.0952380952381 431.52381533668154 Q 440.9523809523809 434.38095819382437 443.80952380952374 439.14286295572913 Q 446.66666666666663 443.9047677176339 450.4761904761905 447.7142915271577 Q 454.2857142857143 451.52381533668154 457.1428571428571 454.3809581938244 Q 460 457.23810105096726 461.9047619047619 460.0952439081101 Q 463.8095238095238 462.9523867652529 465.71428571428567 466.7619105747767 Q 467.6190476190476 470.5714343843006 470.4761904761905 473.42857724144346 Q 473.3333333333333 476.2857200985863 476.19047619047615 479.14286295572913 Q 479.04761904761904 482.000005812872 480 485.8095296223958 Q 480.9523809523809 489.6190534319196 483.80952380952374 493.42857724144346 Q 486.66666666666663 497.23810105096726 488.57142857142856 498.19048200334817 Q 490.4761904761904 499.14286295572913 492.38095238095235 502.952386765253 Q 494.2857142857143 506.7619105747768 499.04761904761904 513.4285772414435 Q 503.8095238095238 520.0952439081101 507.6190476190476 523.9047677176338 Q 511.4285714285714 527.7142915271577 514.2857142857142 532.4761962890625 Q 517.1428571428571 537.2381010509672 519.047619047619 540.0952439081101 Q 520.952380952381 542.952386765253 522.8571428571429 545.8095296223958 Q 524.7619047619047 548.6666724795386 527.6190476190476 552.4761962890625 Q 530.4761904761905 556.2857200985862 532.3809523809523 559.1428629557291 Q 534.2857142857142 562.000005812872 539.047619047619 567.7142915271577 Q 543.8095238095237 573.4285772414435 550.4761904761904 582.952386765253 Q 557.1428571428571 592.4761962890625 559.047619047619 595.3333391462054 Q 560.952380952381 598.1904820033482 563.8095238095239 604.8571486700148 Q 566.6666666666666 611.5238153366815 568.5714285714286 614.3809581938244 Q 570.4761904761905 617.2381010509672 574.2857142857142 622.0000058128719 Q 578.0952380952381 626.7619105747767 583.8095238095239 633.4285772414435 Q 589.5238095238095 640.0952439081101 592.3809523809523 646.7619105747767 Q 595.2380952380952 653.4285772414435 598.0952380952381 657.2381010509673 Q 600.952380952381 661.047624860491 603.8095238095239 665.8095296223958 Q 606.6666666666666 670.5714343843006 609.5238095238094 675.3333391462054 Q 612.3809523809523 680.0952439081101 618.0952380952381 688.6666724795386 Q 623.8095238095237 697.2381010509672 627.6190476190476 703.9047677176338 Q 631.4285714285714 710.5714343843006 636.1904761904761 717.2381010509673 Q 640.952380952381 723.904767717634 645.7142857142858 733.4285772414435 Q 650.4761904761905 742.952386765253 654.2857142857142 746.7619105747767 Q 658.0952380952381 750.5714343843006 660.952380952381 754.3809581938244 Q 663.8095238095237 758.1904820033482 666.6666666666666 762.9523867652529 Q 669.5238095238095 767.7142915271577 673.3333333333333 771.5238153366815 Q 677.1428571428571 775.3333391462053 678.0952380952381 778.1904820033482 Q 679.047619047619 781.047624860491 680.952380952381 783.9047677176338 Q 682.8571428571428 786.7619105747767 683.8095238095237 788.6666724795386 Q 684.7619047619047 790.5714343843006 685.7142857142857 791.5238153366815 Q 686.6666666666666 792.4761962890625 688.5714285714286 794.3809581938244 Q 690.4761904761905 796.2857200985862 691.4285714285713 797.2381010509672 Q 692.3809523809523 798.1904820033482 693.3333333333333 799.1428629557291 Q 694.2857142857142 800.0952439081101 697.1428571428571 806.7619105747767 Q 700 813.4285772414435 703.8095238095239 817.2381010509673 Q 707.6190476190476 821.047624860491 710.4761904761904 824.8571486700148 Q 713.3333333333333 828.6666724795386 720 834.3809581938244 Q 726.6666666666666 840.0952439081101 729.5238095238094 843.9047677176338 Q 732.3809523809523 847.7142915271577 734.2857142857142 850.5714343843006 Q 736.1904761904761 853.4285772414433 738.0952380952381 856.2857200985862 Q 740 859.1428629557291 740.952380952381 861.047624860491 Q 741.9047619047618 862.952386765253 743.8095238095237 864.8571486700148 Q 745.7142857142857 866.7619105747767 746.6666666666666 867.7142915271577 Q 747.6190476190476 868.6666724795386 748.5714285714286 869.6190534319196 Q 749.5238095238095 870.5714343843006 750.4761904761904 871.5238153366815 Q 751.4285714285713 872.4761962890625 754.2857142857142 875.3333391462054 Q 757.1428571428571 878.1904820033482 758.0952380952381 881.0476248604909 Q 759.047619047619 883.9047677176338 760 885.8095296223958 Q 760.952380952381 887.7142915271577 763.8095238095239 892.4761962890625 Q 766.6666666666666 897.2381010509672 768.5714285714286 901.0476248604909 Q 770.4761904761905 904.8571486700148 772.3809523809523 908.6666724795386 Q 774.2857142857142 912.4761962890625 775.2380952380952 914.3809581938244 Q 776.1904761904761 916.2857200985862 777.1428571428571 917.2381010509672 Q 778.0952380952381 918.1904820033482 779.047619047619 919.1428629557291 Q 780 920.0952439081101 781.9047619047619 922.0000058128719 Q 783.8095238095237 923.9047677176338 782.8571428571428 924.8571486700148 Q 781.9047619047618 925.8095296223958 780.952380952381 925.8095296223958 L 779.97 925.8095296223958" stroke-linecap="round" />
</g>
<g transform="matrix(1 0 0 1 554.29 600.08)"  >
<path style="stroke: rgb(235,228,228); stroke-width: 30; stroke-dasharray: none; stroke-linecap: round; stroke-dashoffset: 0; stroke-linejoin: round; stroke-miterlimit: 10; fill: none; fill-rule: nonzero; opacity: 1;" vector-effect="non-scaling-stroke"  transform=" translate(-554.29, -600.08)" d="M 259.97 937.2381010509672 Q 260 937.2381010509672 261.9047619047619 937.2381010509672 Q 263.8095238095238 937.2381010509672 265.71428571428567 937.2381010509672 Q 267.6190476190476 937.2381010509672 269.5238095238095 936.2857200985862 Q 271.4285714285714 935.3333391462053 272.38095238095235 935.3333391462053 Q 273.3333333333333 935.3333391462053 275.2380952380952 934.3809581938243 Q 277.1428571428571 933.4285772414433 278.0952380952381 932.4761962890625 Q 279.04761904761904 931.5238153366815 283.8095238095238 928.6666724795386 Q 288.57142857142856 925.8095296223958 291.42857142857144 923.9047677176338 Q 294.2857142857143 922.000005812872 298.0952380952381 918.1904820033482 Q 301.90476190476187 914.3809581938243 305.71428571428567 910.5714343843006 Q 309.5238095238095 906.7619105747767 313.3333333333333 902.9523867652529 Q 317.1428571428571 899.1428629557291 318.0952380952381 897.2381010509672 Q 319.04761904761904 895.3333391462053 324.76190476190476 886.7619105747767 Q 330.4761904761905 878.1904820033482 334.2857142857143 873.4285772414435 Q 338.0952380952381 868.6666724795386 340.95238095238096 862.9523867652529 Q 343.8095238095238 857.2381010509672 346.66666666666663 853.4285772414435 Q 349.5238095238095 849.6190534319196 351.42857142857144 847.7142915271577 Q 353.3333333333333 845.8095296223958 354.2857142857143 844.8571486700148 Q 355.23809523809524 843.9047677176338 356.19047619047615 842.0000058128719 Q 357.1428571428571 840.0952439081101 360.95238095238096 835.3333391462054 Q 364.76190476190476 830.5714343843006 367.6190476190476 824.8571486700148 Q 370.4761904761905 819.1428629557291 374.2857142857143 814.3809581938244 Q 378.0952380952381 809.6190534319196 382.85714285714283 804.8571486700148 Q 387.6190476190476 800.0952439081101 389.5238095238095 795.3333391462054 Q 391.4285714285714 790.5714343843006 394.2857142857142 787.7142915271577 Q 397.1428571428571 784.8571486700148 402.85714285714283 781.0476248604909 Q 408.57142857142856 777.2381010509672 413.3333333333333 774.3809581938244 Q 418.0952380952381 771.5238153366815 421.90476190476187 768.6666724795386 Q 425.71428571428567 765.8095296223958 430.4761904761905 760.09524390811 Q 435.23809523809524 754.3809581938243 438.0952380952381 751.5238153366815 Q 440.9523809523809 748.6666724795386 443.80952380952374 742.9523867652529 Q 446.66666666666663 737.2381010509672 450.4761904761905 732.4761962890625 Q 454.2857142857143 727.7142915271577 462.85714285714283 715.3333391462054 Q 471.4285714285714 702.952386765253 477.1428571428571 690.5714343843006 Q 482.85714285714283 678.1904820033482 487.6190476190476 673.4285772414435 Q 492.38095238095235 668.6666724795386 497.1428571428571 659.1428629557291 Q 501.90476190476187 649.6190534319196 505.71428571428567 644.8571486700148 Q 509.5238095238095 640.0952439081101 514.2857142857142 632.4761962890625 Q 519.047619047619 624.8571486700148 520.952380952381 621.0476248604909 Q 522.8571428571428 617.2381010509672 528.5714285714284 609.6190534319196 Q 534.2857142857142 602.000005812872 535.2380952380952 599.1428629557291 Q 536.1904761904761 596.2857200985862 545.7142857142857 589.6190534319196 Q 555.2380952380952 582.952386765253 560 578.1904820033483 Q 564.7619047619047 573.4285772414435 569.5238095238094 564.8571486700148 Q 574.2857142857142 556.2857200985862 580 550.5714343843006 Q 585.7142857142857 544.8571486700148 590.4761904761904 539.1428629557291 Q 595.2380952380952 533.4285772414435 600.952380952381 526.7619105747767 Q 606.6666666666666 520.0952439081101 612.3809523809523 513.4285772414435 Q 618.0952380952381 506.7619105747768 621.9047619047619 502.000005812872 Q 625.7142857142857 497.23810105096726 630.4761904761904 491.52381533668154 Q 635.2380952380952 485.8095296223958 642.8571428571429 477.2381010509672 Q 650.4761904761905 468.66667247953865 655.2380952380952 463.9047677176339 Q 660 459.14286295572913 664.7619047619048 452.4761962890625 Q 669.5238095238095 445.8095296223958 675.2380952380952 440.0952439081101 Q 680.952380952381 434.38095819382437 687.6190476190476 427.7142915271577 Q 694.2857142857142 421.04762486049106 701.9047619047619 416.2857200985863 Q 709.5238095238095 411.52381533668154 716.1904761904761 404.85714867001485 Q 722.8571428571428 398.19048200334817 727.6190476190475 393.4285772414434 Q 732.3809523809523 388.66667247953865 735.2380952380952 385.8095296223958 Q 738.0952380952381 382.952386765253 742.8571428571429 379.14286295572913 Q 747.6190476190476 375.33333914620533 750.4761904761904 371.52381533668154 Q 753.3333333333333 367.71429152715774 754.2857142857142 366.7619105747768 Q 755.2380952380952 365.8095296223958 757.1428571428571 363.90476771763394 Q 759.047619047619 362.000005812872 761.9047619047619 358.19048200334817 Q 764.7619047619047 354.38095819382437 767.6190476190476 351.52381533668154 Q 770.4761904761905 348.66667247953865 773.3333333333333 345.8095296223958 Q 776.1904761904761 342.952386765253 778.0952380952381 340.0952439081101 Q 780 337.23810105096726 786.6666666666666 329.6190534319196 Q 793.3333333333333 322.000005812872 797.1428571428571 317.23810105096726 Q 800.952380952381 312.4761962890625 805.7142857142858 305.8095296223958 Q 810.4761904761905 299.14286295572913 814.2857142857142 296.2857200985863 Q 818.0952380952381 293.42857724144346 821.9047619047619 288.66667247953865 Q 825.7142857142857 283.9047677176339 831.4285714285713 279.14286295572913 Q 837.1428571428571 274.38095819382437 842.8571428571429 268.66667247953865 L 848.6014285714285 262.922386765253" stroke-linecap="round" />
</g>
</svg>