<svg xmlns="http://www.w3.org/2000/svg" xmlns:xlink="http://www.w3.org/1999/xlink" version="1.1" x="0px" y="0px" viewBox="0 0 30 37.5" xml:space="preserve"><g transform="translate(-30 -560)"><g xmlns="http://www.w3.org/2000/svg" xmlns:xlink="http://www.w3.org/1999/xlink"><rect x="36" y="562" width="5" height="5"/><rect x="43" y="569" width="5" height="5"/><rect x="50" y="576" width="5" height="5"/><polygon points="39,571 39,568 38,568 38,589 39,589 39,572 42,572 42,571   "/><rect x="50" y="583" width="5" height="5"/><polygon points="49,579 49,578 46,578 46,575 45,575 45,586 49,586 49,585 46,585 46,579   "/></g></g><text x="0" y="45" fill="#000000" font-size="5px" font-weight="bold" font-family="'Helvetica Neue', Helvetica, Arial-Unicode, Arial, Sans-serif">Created by Hea Poh Lin</text><text x="0" y="50" fill="#000000" font-size="5px" font-weight="bold" font-family="'Helvetica Neue', Helvetica, Arial-Unicode, Arial, Sans-serif">from the Noun Project</text></svg>