<?xml version="1.0" encoding="UTF-8"?>
<svg xmlns="http://www.w3.org/2000/svg" xmlns:xlink="http://www.w3.org/1999/xlink" width="30pt" height="30pt" viewBox="0 0 30 30" version="1.1">
<g id="surface1">
<path style=" stroke:none;fill-rule:nonzero;fill:rgb(0%,0%,0%);fill-opacity:1;" d="M 29.59375 3.132812 C 29.339844 2.957031 29.015625 2.914062 28.726562 3.023438 L 19.683594 6.34375 L 10.640625 3.019531 C 10.429688 2.945312 10.199219 2.945312 9.988281 3.019531 L 0.621094 6.464844 C 0.246094 6.601562 0 6.957031 0 7.351562 L 0 26.089844 C 0 26.398438 0.152344 26.6875 0.40625 26.867188 C 0.566406 26.980469 0.753906 27.035156 0.945312 27.035156 C 1.058594 27.035156 1.167969 27.015625 1.273438 26.980469 L 10.316406 23.65625 L 19.355469 26.980469 C 19.566406 27.054688 19.800781 27.054688 20.011719 26.980469 L 29.378906 23.535156 C 29.753906 23.398438 30 23.042969 30 22.648438 L 30 3.910156 C 30 3.601562 29.847656 3.3125 29.59375 3.132812 Z M 28.105469 21.988281 L 19.683594 25.082031 L 10.640625 21.757812 C 10.535156 21.71875 10.425781 21.699219 10.316406 21.699219 C 10.203125 21.699219 10.09375 21.71875 9.988281 21.757812 L 1.894531 24.734375 L 1.894531 8.011719 L 10.316406 4.917969 L 19.355469 8.242188 C 19.566406 8.320312 19.800781 8.320312 20.011719 8.242188 L 28.105469 5.265625 Z M 28.105469 21.988281 "/>
<path style=" stroke:none;fill-rule:nonzero;fill:rgb(0%,0%,0%);fill-opacity:1;" d="M 19.828125 14.492188 C 19.828125 11.269531 17.207031 8.648438 13.988281 8.648438 C 10.765625 8.648438 8.144531 11.269531 8.144531 14.492188 C 8.144531 17.714844 10.765625 20.332031 13.988281 20.332031 C 15.257812 20.332031 16.429688 19.925781 17.390625 19.234375 L 20.238281 22.082031 C 20.425781 22.269531 20.667969 22.359375 20.910156 22.359375 C 21.152344 22.359375 21.394531 22.269531 21.578125 22.082031 C 21.949219 21.714844 21.949219 21.113281 21.578125 20.742188 L 18.730469 17.894531 C 19.417969 16.9375 19.828125 15.761719 19.828125 14.492188 Z M 10.039062 14.492188 C 10.039062 12.316406 11.808594 10.542969 13.988281 10.542969 C 16.164062 10.542969 17.933594 12.316406 17.933594 14.492188 C 17.933594 16.667969 16.164062 18.4375 13.988281 18.4375 C 11.808594 18.4375 10.039062 16.667969 10.039062 14.492188 Z M 10.039062 14.492188 "/>
</g>
</svg>
