<?xml version="1.0" standalone="no"?>
<!DOCTYPE svg PUBLIC "-//W3C//DTD SVG 20010904//EN"
 "http://www.w3.org/TR/2001/REC-SVG-20010904/DTD/svg10.dtd">
<svg version="1.0" xmlns="http://www.w3.org/2000/svg"
 width="254.000000pt" height="190.000000pt" viewBox="0 0 254.000000 190.000000"
 preserveAspectRatio="xMidYMid meet">
<metadata>
Created by potrace 1.16, written by Peter Selinger 2001-2019
</metadata>
<g transform="translate(0.000000,190.000000) scale(0.100000,-0.100000)"
fill="#000000" stroke="none">
<path d="M722 1388 l3 -213 104 -3 103 -3 -6 -357 c-4 -196 -10 -367 -13 -380
l-5 -23 261 7 261 7 0 -61 0 -62 170 0 170 0 0 145 0 145 -170 0 -169 0 -3
-68 -3 -67 -235 -6 c-129 -3 -236 -5 -238 -3 -2 1 0 110 4 243 l7 241 147 0
c81 0 188 -3 238 -6 l91 -7 3 -41 3 -41 163 -3 163 -2 -3 152 -3 153 -160 0
-160 0 -3 -94 -3 -93 -31 6 c-17 3 -124 6 -239 6 l-209 0 0 105 0 104 133 3
132 3 0 210 0 210 -253 3 -252 2 2 -212z m468 -3 l0 -175 -215 0 -215 0 0 175
0 175 215 0 215 0 0 -175z m540 -405 l0 -120 -125 0 -125 0 0 120 0 120 125 0
125 0 0 -120z m0 -530 l0 -110 -135 0 -135 0 0 110 0 110 135 0 135 0 0 -110z"/>
</g>
</svg>
