<svg id="svg" version="1.1" xmlns="http://www.w3.org/2000/svg" xmlns:xlink="http://www.w3.org/1999/xlink" width="400" height="328.88888888888886" viewBox="0, 0, 400,328.88888888888886"><g id="svgg"><path id="path0" d="M194.408 0.824 C 179.900 3.973,170.778 15.074,170.491 29.930 C 170.369 36.257,170.444 36.036,168.092 37.006 C 167.278 37.342,166.020 37.873,165.296 38.186 C 164.572 38.499,161.316 39.893,158.059 41.283 C 152.855 43.505,144.148 47.254,141.283 48.507 C 140.740 48.745,138.150 49.857,135.526 50.978 C 132.903 52.100,128.166 54.133,125.000 55.495 C 117.805 58.591,107.394 63.076,106.086 63.643 C 105.543 63.878,102.952 64.992,100.329 66.118 C 97.706 67.245,95.115 68.361,94.572 68.598 C 94.030 68.835,91.291 70.014,88.487 71.218 C 85.683 72.421,82.761 73.690,81.994 74.038 C 79.914 74.982,79.639 74.881,77.058 72.224 C 70.464 65.436,64.598 62.993,54.934 63.011 L 48.849 63.023 45.489 64.189 C 17.325 73.969,18.153 113.180,46.711 122.085 C 50.296 123.203,58.749 123.220,62.706 122.116 C 66.298 121.115,64.991 119.839,75.191 134.307 C 76.110 135.611,79.205 139.934,82.069 143.914 C 84.933 147.895,87.797 151.891,88.433 152.796 C 89.069 153.701,90.304 155.424,91.177 156.625 C 93.183 159.388,93.179 159.431,90.532 163.064 C 89.316 164.731,87.195 167.692,85.817 169.643 C 84.438 171.594,80.900 176.595,77.953 180.757 C 75.006 184.918,71.190 190.321,69.472 192.763 C 65.785 198.005,65.690 198.099,64.522 197.648 C 48.141 191.313,27.892 202.909,24.837 220.374 C 19.594 250.344,55.315 268.822,76.468 247.082 C 78.806 244.679,78.527 244.700,83.059 246.577 C 85.049 247.401,88.972 249.016,91.776 250.165 C 94.581 251.314,98.725 253.018,100.987 253.952 C 103.248 254.887,107.097 256.469,109.539 257.469 C 113.543 259.107,115.514 259.917,121.382 262.331 C 124.641 263.672,133.618 267.343,138.651 269.394 C 141.365 270.499,143.882 271.543,144.243 271.712 C 144.605 271.881,146.900 272.829,149.342 273.818 C 151.785 274.807,155.781 276.448,158.224 277.465 C 160.666 278.482,164.167 279.908,166.003 280.633 C 170.750 282.508,170.585 282.327,170.122 285.133 C 166.433 307.468,188.303 325.531,210.033 318.096 C 221.586 314.143,230.263 302.404,230.263 290.726 C 230.263 289.418,230.448 289.181,235.609 283.911 C 241.572 277.821,247.780 271.431,262.333 256.404 C 267.760 250.801,274.487 243.885,277.282 241.035 C 280.077 238.184,282.456 235.703,282.569 235.522 C 282.681 235.340,285.354 232.565,288.508 229.355 C 291.663 226.146,298.906 218.710,304.605 212.832 C 310.304 206.954,317.344 199.701,320.248 196.714 C 323.152 193.727,326.567 190.207,327.837 188.892 L 330.145 186.501 332.383 187.516 C 352.183 196.493,374.125 183.658,375.553 162.262 C 377.144 138.434,352.262 122.413,331.018 133.588 L 329.112 134.591 327.185 132.509 C 326.126 131.364,323.542 128.651,321.444 126.480 C 314.225 119.010,307.834 112.368,293.750 97.695 C 289.679 93.454,284.202 87.761,281.579 85.045 C 274.444 77.655,269.119 72.123,260.193 62.829 C 255.763 58.216,250.209 52.443,247.852 50.000 C 245.495 47.558,241.646 43.561,239.299 41.118 C 236.953 38.676,234.952 36.604,234.852 36.513 C 234.753 36.423,233.776 35.377,232.682 34.190 L 230.691 32.031 230.492 28.433 C 229.481 10.193,212.193 -3.035,194.408 0.824 M231.979 40.668 C 232.935 41.506,234.662 43.171,235.818 44.368 C 236.973 45.566,241.266 50.024,245.357 54.274 C 249.449 58.525,254.725 64.002,257.082 66.445 C 259.439 68.889,263.285 72.887,265.627 75.329 C 267.970 77.771,271.671 81.620,273.853 83.882 C 276.034 86.143,279.957 90.214,282.570 92.928 C 285.182 95.641,289.248 99.863,291.604 102.310 C 293.960 104.756,297.664 108.611,299.836 110.876 C 310.644 122.152,319.209 131.069,321.953 133.901 C 325.510 137.572,325.499 137.528,323.336 139.651 C 321.776 141.181,319.129 144.846,318.654 146.135 C 318.321 147.039,317.883 146.930,305.730 142.919 C 288.974 137.389,240.094 121.234,234.582 119.406 C 229.344 117.668,229.289 117.626,229.281 115.296 C 229.217 96.133,206.366 81.657,188.158 89.244 C 178.403 93.309,169.408 104.217,169.408 111.983 C 169.408 113.335,168.697 113.594,166.551 113.027 C 165.499 112.749,163.380 112.228,161.842 111.868 C 160.304 111.508,157.418 110.830,155.428 110.361 C 153.438 109.893,150.921 109.302,149.836 109.048 C 138.258 106.344,137.728 106.210,137.363 105.883 C 137.187 105.727,137.664 104.747,138.500 103.547 C 140.156 101.169,149.401 88.132,152.606 83.654 C 153.796 81.992,156.688 77.921,159.032 74.608 C 161.377 71.296,164.868 66.365,166.790 63.651 C 168.712 60.938,171.727 56.677,173.489 54.184 L 176.693 49.651 179.158 51.953 C 196.033 67.712,221.493 61.511,229.376 39.720 C 229.688 38.858,230.075 38.999,231.979 40.668 M172.857 42.946 C 173.980 45.587,174.285 44.872,168.653 52.796 C 166.209 56.234,163.344 60.271,162.286 61.767 C 161.228 63.264,159.386 65.855,158.193 67.524 C 157.001 69.193,153.461 74.186,150.327 78.618 C 147.194 83.051,143.682 88.010,142.523 89.638 C 141.365 91.266,138.641 95.115,136.471 98.191 C 131.332 105.472,132.080 104.858,129.198 104.165 C 126.315 103.472,113.730 100.504,109.953 99.626 C 108.461 99.279,105.982 98.700,104.445 98.338 C 102.907 97.976,100.390 97.384,98.852 97.022 C 97.315 96.660,94.760 96.058,93.176 95.684 C 91.592 95.311,89.345 94.793,88.183 94.535 C 85.376 93.911,85.325 93.848,85.101 90.674 C 84.885 87.611,83.928 83.497,82.879 81.127 C 82.086 79.334,82.226 79.004,84.126 78.193 C 84.806 77.903,87.656 76.688,90.461 75.492 C 93.265 74.296,95.855 73.186,96.217 73.026 C 96.579 72.866,99.095 71.784,101.809 70.622 C 106.321 68.690,112.005 66.241,125.493 60.416 C 128.207 59.244,133.092 57.151,136.349 55.766 C 141.304 53.657,150.976 49.498,154.770 47.845 C 155.313 47.609,158.717 46.144,162.336 44.590 C 165.954 43.035,169.359 41.554,169.901 41.298 C 171.608 40.491,171.878 40.642,172.857 42.946 M91.081 100.020 C 94.087 100.755,97.730 101.635,99.178 101.976 C 100.625 102.316,103.438 102.980,105.428 103.450 C 107.418 103.920,110.304 104.600,111.842 104.960 C 113.380 105.320,115.230 105.754,115.954 105.923 C 116.678 106.093,118.898 106.607,120.888 107.065 C 126.205 108.289,128.618 108.933,128.618 109.127 C 128.618 109.287,127.357 111.107,123.731 116.175 C 120.541 120.635,113.313 130.847,112.407 132.175 C 111.184 133.967,112.033 134.441,102.088 126.417 C 97.423 122.652,93.049 119.128,92.368 118.586 C 79.452 108.293,80.554 109.645,82.217 106.127 C 82.926 104.629,83.751 102.454,84.052 101.294 C 84.869 98.138,84.015 98.293,91.081 100.020 M139.908 111.545 C 143.016 112.286,147.928 113.456,150.822 114.145 C 153.717 114.833,158.629 116.003,161.737 116.745 C 164.845 117.486,167.616 118.092,167.893 118.092 C 168.629 118.092,168.968 118.957,169.234 121.510 C 169.486 123.926,170.602 128.005,171.555 129.987 C 172.308 131.555,172.133 131.912,169.693 133.788 C 167.362 135.581,146.797 151.755,143.155 154.661 C 140.037 157.148,140.204 157.184,134.942 152.929 C 132.459 150.921,127.068 146.591,122.962 143.307 C 117.750 139.139,115.491 137.134,115.478 136.668 C 115.468 136.302,117.570 133.036,120.148 129.412 C 122.726 125.788,126.168 120.931,127.796 118.619 C 131.565 113.267,133.855 110.197,134.080 110.197 C 134.177 110.197,136.799 110.804,139.908 111.545 M80.274 114.904 C 81.444 115.864,87.138 120.463,92.928 125.123 C 106.777 136.271,108.224 137.470,108.224 137.797 C 108.224 137.950,107.150 139.568,105.839 141.394 C 104.527 143.220,101.831 147.013,99.847 149.824 C 95.767 155.606,96.074 155.373,94.840 153.613 C 94.331 152.886,92.212 149.932,90.132 147.048 C 88.051 144.164,85.001 139.910,83.355 137.596 C 81.708 135.282,78.109 130.243,75.357 126.400 C 72.606 122.556,70.444 119.266,70.553 119.088 C 70.663 118.911,71.523 118.253,72.465 117.625 C 73.407 116.998,74.912 115.736,75.810 114.821 C 77.815 112.779,77.681 112.776,80.274 114.904 M231.320 123.323 C 232.277 123.667,242.829 127.162,254.770 131.090 C 266.711 135.017,280.625 139.601,285.691 141.277 C 290.757 142.952,299.564 145.842,305.263 147.699 C 310.962 149.555,315.764 151.201,315.935 151.357 C 316.127 151.532,316.016 153.009,315.642 155.251 C 314.916 159.599,315.060 163.325,316.116 167.553 C 316.727 170.003,316.772 170.540,316.399 170.913 C 316.025 171.287,301.736 176.285,286.842 181.251 C 284.762 181.945,278.026 184.236,271.875 186.341 C 265.724 188.447,258.322 190.966,255.428 191.939 C 252.533 192.912,246.030 195.124,240.977 196.854 C 230.714 200.368,230.689 200.373,230.400 199.095 C 228.072 188.829,224.747 183.478,217.723 178.693 C 205.008 170.033,189.505 171.703,178.363 182.933 C 176.305 185.008,175.530 185.599,175.185 185.355 C 174.934 185.178,170.978 182.006,166.394 178.306 C 142.146 158.736,143.640 160.127,145.477 158.829 C 146.065 158.413,150.025 155.325,154.276 151.968 C 166.492 142.320,174.146 136.324,174.556 136.081 C 174.778 135.950,175.804 136.761,177.024 138.030 C 194.090 155.792,222.540 148.109,228.619 124.095 C 229.026 122.488,229.010 122.492,231.320 123.323 M122.569 149.003 C 126.710 152.344,131.394 156.108,132.977 157.369 C 136.344 160.049,136.323 159.969,134.113 161.708 C 133.171 162.448,128.133 166.417,122.917 170.528 C 117.701 174.639,113.241 178.076,113.006 178.166 C 112.741 178.267,111.289 176.537,109.192 173.622 C 107.330 171.033,104.355 166.916,102.581 164.474 C 98.806 159.276,98.846 159.492,101.069 156.355 C 102.019 155.015,103.684 152.669,104.770 151.142 C 105.855 149.614,107.336 147.524,108.059 146.496 C 108.783 145.468,110.011 143.754,110.788 142.687 L 112.200 140.748 113.620 141.838 C 114.401 142.437,118.428 145.661,122.569 149.003 M147.744 169.326 C 151.730 172.537,159.012 178.401,163.927 182.356 C 174.028 190.487,173.371 189.546,171.882 193.750 C 171.402 195.107,170.874 197.020,170.709 198.002 C 170.279 200.570,171.912 199.970,154.934 203.798 C 150.332 204.836,146.121 205.818,138.064 207.733 C 133.739 208.762,135.006 209.754,127.854 199.736 C 124.535 195.087,120.463 189.400,118.805 187.099 C 117.146 184.798,115.789 182.777,115.789 182.607 C 115.789 182.012,139.268 163.487,140.021 163.487 C 140.283 163.487,143.758 166.114,147.744 169.326 M102.468 172.395 C 105.835 177.114,108.545 181.176,108.489 181.422 C 108.366 181.968,78.038 205.921,77.470 205.921 C 77.248 205.921,76.269 205.176,75.293 204.266 C 74.318 203.356,72.820 202.135,71.966 201.552 C 69.912 200.153,69.815 200.453,74.421 193.980 C 76.635 190.868,78.754 187.878,79.131 187.336 C 79.761 186.425,85.110 178.858,92.672 168.174 C 94.369 165.777,95.890 163.816,96.051 163.816 C 96.213 163.816,99.100 167.677,102.468 172.395 M320.559 177.488 C 321.283 178.556,322.808 180.356,323.949 181.487 C 325.406 182.933,325.945 183.683,325.759 184.008 C 325.522 184.420,318.474 191.744,302.455 208.224 C 299.553 211.209,294.890 216.017,292.093 218.907 C 289.295 221.798,284.559 226.683,281.567 229.763 C 278.575 232.842,273.838 237.726,271.040 240.616 C 258.066 254.019,247.956 264.434,239.896 272.697 C 236.808 275.863,233.355 279.458,232.222 280.685 C 229.771 283.341,229.742 283.339,228.789 280.416 C 221.912 259.326,194.178 252.130,179.294 267.574 C 177.449 269.488,178.737 270.902,165.789 252.750 C 149.011 229.228,144.383 222.751,143.258 221.217 C 136.514 212.020,136.582 212.903,142.516 211.549 C 148.322 210.224,153.493 209.018,156.086 208.383 C 169.492 205.105,170.391 204.998,170.400 206.681 C 170.437 213.456,176.204 223.501,182.699 228.105 C 201.377 241.345,227.166 230.234,230.433 207.538 C 230.739 205.412,230.840 205.318,233.917 204.273 C 235.435 203.757,241.933 201.536,248.355 199.338 C 254.778 197.140,262.179 194.619,264.803 193.736 C 267.426 192.853,273.939 190.640,279.276 188.817 C 284.613 186.994,292.681 184.247,297.204 182.712 C 301.727 181.177,308.388 178.899,312.007 177.650 C 319.650 175.012,318.890 175.026,320.559 177.488 M120.474 197.554 C 125.131 204.055,128.943 209.474,128.945 209.594 C 128.946 209.715,127.578 210.128,125.905 210.513 C 124.231 210.898,121.678 211.491,120.230 211.831 C 118.783 212.171,115.304 212.979,112.500 213.626 C 109.696 214.274,106.069 215.112,104.441 215.489 C 102.813 215.866,100.222 216.465,98.684 216.820 C 95.452 217.567,93.339 218.065,88.359 219.252 C 84.167 220.252,84.417 220.379,83.216 216.645 C 82.721 215.104,81.853 213.024,81.287 212.022 C 80.039 209.809,79.247 210.740,88.492 203.552 C 92.379 200.530,99.112 195.246,103.454 191.809 C 107.796 188.371,111.497 185.598,111.678 185.646 C 111.859 185.694,115.817 191.052,120.474 197.554 M134.432 217.105 C 135.553 218.643,137.035 220.669,137.725 221.606 C 138.416 222.544,140.272 225.135,141.851 227.363 C 146.466 233.875,166.742 262.217,170.622 267.578 C 174.868 273.444,174.650 272.773,173.177 275.453 C 171.655 278.221,173.386 278.550,159.539 272.865 C 158.544 272.456,155.362 271.152,152.467 269.967 C 149.572 268.782,145.354 267.047,143.092 266.113 C 140.831 265.178,136.612 263.451,133.717 262.274 C 130.822 261.098,128.010 259.935,127.467 259.689 C 126.924 259.443,124.778 258.552,122.697 257.709 C 118.188 255.881,103.846 250.018,92.763 245.472 C 80.473 240.431,81.126 240.797,81.861 239.369 C 83.306 236.562,84.707 230.646,84.950 226.326 C 85.047 224.613,84.050 225.013,93.586 222.855 C 97.204 222.036,101.053 221.154,102.138 220.896 C 103.224 220.638,105.370 220.136,106.908 219.780 C 111.745 218.663,115.399 217.800,123.026 215.974 C 132.526 213.701,131.906 213.639,134.432 217.105 " stroke="none" fill="#050505" fill-rule="evenodd"></path><path id="path1" d="M0.000 164.474 L 0.000 328.947 200.000 328.947 L 400.000 328.947 400.000 164.474 L 400.000 0.000 302.714 0.036 C 249.206 0.056,206.030 0.192,206.767 0.338 C 220.053 2.974,230.215 14.972,231.144 29.118 L 231.344 32.150 232.996 33.921 C 233.905 34.894,236.575 37.689,238.930 40.132 C 249.523 51.118,251.719 53.397,255.428 57.257 C 257.599 59.516,262.484 64.609,266.283 68.573 C 270.082 72.538,275.337 78.009,277.961 80.730 C 286.179 89.256,290.534 93.782,294.449 97.862 C 304.583 108.423,320.360 124.826,326.722 131.414 L 329.263 134.046 330.997 133.166 C 338.894 129.156,349.640 128.304,355.536 131.220 C 355.838 131.370,357.652 132.255,359.568 133.188 C 366.226 136.432,370.499 140.961,373.723 148.191 C 376.259 153.879,376.672 163.147,374.677 169.624 C 369.262 187.209,348.065 196.123,331.799 187.656 C 330.361 186.907,330.218 186.983,327.288 190.049 C 325.775 191.632,319.572 198.034,313.502 204.274 C 307.433 210.515,300.247 217.916,297.533 220.722 C 288.063 230.512,271.384 247.683,263.181 256.086 C 260.708 258.618,254.401 265.132,249.165 270.559 C 243.929 275.987,237.719 282.394,235.365 284.798 C 230.491 289.776,230.777 289.289,230.309 293.428 C 226.670 325.617,180.004 329.867,170.786 298.849 C 169.433 294.295,169.047 289.233,169.734 285.040 C 170.112 282.728,170.087 282.693,167.270 281.598 C 165.238 280.808,161.197 279.139,160.033 278.609 C 159.671 278.444,156.785 277.256,153.618 275.969 C 150.452 274.683,145.567 272.696,142.763 271.554 C 139.959 270.412,135.615 268.647,133.109 267.631 C 128.753 265.866,124.598 264.124,123.191 263.473 C 122.829 263.306,119.794 262.073,116.447 260.734 C 113.100 259.395,109.400 257.899,108.224 257.408 C 107.048 256.918,105.419 256.239,104.605 255.900 C 103.791 255.560,100.757 254.294,97.862 253.086 C 94.967 251.877,91.192 250.330,89.474 249.648 C 87.755 248.966,84.724 247.730,82.739 246.901 C 80.754 246.073,79.048 245.395,78.948 245.395 C 78.847 245.395,77.585 246.552,76.143 247.966 C 65.957 257.951,50.755 259.795,38.651 252.513 C 21.922 242.448,18.885 218.925,32.521 205.031 C 40.627 196.771,53.224 193.453,63.463 196.881 C 64.264 197.149,65.088 197.368,65.295 197.368 C 65.614 197.368,68.069 194.109,71.906 188.592 C 72.432 187.836,74.194 185.346,75.822 183.060 C 77.451 180.773,80.473 176.507,82.539 173.579 C 84.606 170.652,87.677 166.317,89.365 163.947 C 92.973 158.881,92.807 159.649,90.872 156.954 C 90.012 155.757,88.791 154.015,88.158 153.082 C 87.525 152.150,85.884 149.853,84.512 147.979 C 80.356 142.301,73.163 132.253,68.884 126.147 C 67.963 124.832,66.853 123.305,66.417 122.753 L 65.625 121.749 62.500 122.601 C 37.462 129.432,16.031 102.704,27.631 79.112 C 36.884 60.291,62.593 56.448,77.085 71.718 C 79.204 73.951,79.734 74.347,80.350 74.160 C 81.022 73.956,86.110 71.824,89.309 70.407 C 92.322 69.072,93.124 68.728,97.281 66.984 C 99.675 65.979,103.894 64.176,106.656 62.976 C 121.828 56.388,129.894 52.913,132.730 51.742 C 133.816 51.294,138.035 49.480,142.105 47.711 C 146.176 45.941,152.171 43.351,155.428 41.955 C 158.684 40.559,163.284 38.581,165.649 37.560 L 169.948 35.704 169.951 30.599 C 169.959 15.971,179.739 3.494,193.553 0.489 C 195.237 0.122,179.870 0.048,97.780 0.026 L 0.000 0.000 0.000 164.474 M229.720 40.028 C 221.993 61.967,194.870 68.245,178.529 51.878 C 176.650 49.996,177.007 49.829,174.175 53.921 C 172.069 56.963,164.030 68.317,162.045 71.053 C 161.586 71.686,158.697 75.757,155.626 80.099 C 152.555 84.441,149.034 89.386,147.801 91.087 C 146.568 92.788,144.819 95.252,143.914 96.562 C 143.010 97.872,141.200 100.444,139.892 102.278 L 137.514 105.614 138.351 105.932 C 138.811 106.107,139.355 106.250,139.559 106.250 C 139.763 106.250,142.454 106.854,145.540 107.593 C 148.626 108.331,152.336 109.214,153.783 109.553 C 155.230 109.893,158.899 110.769,161.935 111.500 C 168.561 113.095,168.674 113.102,168.947 111.924 C 174.134 89.561,197.372 79.736,216.152 91.966 C 224.182 97.195,228.700 104.992,229.760 115.448 C 229.990 117.719,228.233 116.909,244.737 122.347 C 252.607 124.940,264.745 128.946,271.711 131.250 C 323.674 148.434,317.780 146.687,318.599 145.151 C 319.433 143.589,321.408 141.033,323.297 139.071 L 324.795 137.516 322.515 135.123 C 321.261 133.807,318.522 130.954,316.428 128.783 C 314.334 126.612,308.862 120.913,304.269 116.118 C 299.676 111.324,294.356 105.793,292.449 103.827 C 290.541 101.861,288.832 100.080,288.651 99.869 C 288.470 99.658,286.250 97.342,283.717 94.723 C 274.321 85.006,269.391 79.892,262.336 72.543 C 258.355 68.398,254.877 64.770,254.605 64.481 C 254.334 64.191,252.113 61.882,249.671 59.349 C 247.229 56.816,242.566 51.970,239.309 48.581 C 231.929 40.899,230.014 39.191,229.720 40.028 M161.349 45.434 C 156.283 47.613,151.213 49.828,150.081 50.356 C 148.950 50.884,147.949 51.316,147.857 51.316 C 147.765 51.316,147.063 51.601,146.296 51.949 C 145.529 52.297,142.607 53.563,139.803 54.764 C 136.998 55.964,134.408 57.079,134.046 57.243 C 133.684 57.406,129.688 59.111,125.164 61.031 C 120.641 62.951,116.201 64.862,115.296 65.277 C 113.557 66.077,111.938 66.775,106.086 69.249 C 104.095 70.090,101.801 71.076,100.987 71.439 C 98.755 72.434,98.555 72.520,93.421 74.691 C 90.798 75.800,88.059 76.971,87.336 77.293 C 86.612 77.616,85.317 78.185,84.457 78.559 C 82.657 79.343,82.627 79.481,83.676 82.098 C 84.402 83.910,85.173 87.470,85.770 91.768 L 86.020 93.569 91.941 94.961 C 95.197 95.727,100.156 96.891,102.961 97.548 C 105.765 98.205,110.502 99.327,113.487 100.040 C 116.472 100.754,120.173 101.629,121.711 101.986 C 123.248 102.343,125.987 102.984,127.796 103.412 C 132.129 104.436,130.220 106.313,142.470 88.980 C 145.539 84.638,148.541 80.419,149.140 79.605 C 149.740 78.791,151.088 76.881,152.136 75.361 C 153.184 73.840,155.612 70.406,157.531 67.729 C 159.450 65.052,162.561 60.670,164.444 57.993 C 166.327 55.316,168.297 52.533,168.822 51.809 C 171.670 47.881,173.355 45.427,173.355 45.210 C 173.355 44.372,171.617 41.449,171.125 41.459 C 170.814 41.465,166.414 43.254,161.349 45.434 M84.577 100.865 C 84.113 102.779,83.045 105.560,82.037 107.481 C 81.101 109.264,80.356 108.487,91.612 117.461 C 96.678 121.500,100.896 124.892,100.987 124.999 C 101.514 125.623,110.825 132.895,111.097 132.895 C 111.360 132.895,115.153 127.766,117.763 123.882 C 118.288 123.101,121.573 118.472,125.560 112.896 C 128.197 109.209,128.227 109.061,126.402 108.736 C 125.721 108.616,124.276 108.311,123.191 108.059 C 119.870 107.288,115.766 106.325,112.829 105.626 C 102.688 103.213,98.714 102.279,95.230 101.489 C 93.059 100.996,90.619 100.383,89.808 100.126 C 88.997 99.869,87.576 99.570,86.650 99.461 L 84.966 99.263 84.577 100.865 M132.633 112.582 C 131.343 114.338,127.207 120.149,125.677 122.356 C 124.926 123.439,119.681 130.818,116.859 134.762 C 116.271 135.584,115.789 136.432,115.789 136.647 C 115.789 136.861,120.105 140.509,125.381 144.752 C 130.656 148.995,136.022 153.317,137.305 154.356 C 140.164 156.671,139.992 156.672,142.871 154.338 C 144.169 153.287,146.414 151.517,147.862 150.404 C 149.309 149.292,151.604 147.489,152.961 146.398 C 155.553 144.314,156.142 143.851,157.702 142.668 C 158.540 142.032,171.333 131.995,171.677 131.703 C 171.748 131.642,171.364 130.516,170.823 129.201 C 169.852 126.842,168.970 123.348,168.584 120.329 C 168.448 119.271,168.210 118.733,167.828 118.625 C 167.521 118.539,165.938 118.157,164.309 117.777 C 162.681 117.398,160.831 116.944,160.197 116.770 C 159.564 116.595,156.752 115.917,153.947 115.263 C 151.143 114.610,147.664 113.797,146.217 113.456 C 144.770 113.116,142.788 112.676,141.813 112.479 C 140.838 112.282,138.927 111.836,137.567 111.488 C 134.144 110.613,134.069 110.630,132.633 112.582 M76.302 114.994 C 75.495 115.823,73.984 117.103,72.944 117.838 C 70.659 119.452,70.670 119.124,72.802 122.080 C 75.470 125.779,80.038 132.183,80.592 133.000 C 80.863 133.401,82.566 135.782,84.375 138.293 C 86.184 140.803,88.405 143.924,89.309 145.229 C 91.884 148.941,95.859 154.277,96.047 154.272 C 96.140 154.270,97.697 152.174,99.507 149.614 C 101.316 147.054,103.240 144.335,103.783 143.572 C 104.326 142.810,105.476 141.194,106.338 139.983 L 107.907 137.780 107.161 137.148 C 106.750 136.801,105.239 135.590,103.803 134.459 C 102.367 133.327,100.665 131.947,100.020 131.391 C 99.376 130.835,96.110 128.175,92.763 125.479 C 89.416 122.783,84.704 118.981,82.291 117.032 C 79.879 115.082,77.875 113.487,77.837 113.487 C 77.799 113.487,77.109 114.165,76.302 114.994 M229.167 123.575 C 229.046 123.695,228.947 124.065,228.947 124.396 C 228.947 126.074,226.532 131.760,224.602 134.626 C 213.853 150.585,190.237 152.653,177.152 138.782 C 174.578 136.053,175.198 136.059,171.824 138.734 C 170.284 139.955,168.266 141.514,167.340 142.199 C 166.414 142.883,165.131 143.868,164.490 144.386 C 163.848 144.905,162.527 145.973,161.556 146.760 C 160.584 147.547,158.660 149.061,157.279 150.125 C 150.448 155.388,144.735 160.024,144.813 160.239 C 144.862 160.372,147.270 162.364,150.164 164.666 C 153.059 166.968,156.328 169.606,157.429 170.528 C 158.530 171.450,159.998 172.648,160.691 173.191 C 163.101 175.077,164.069 175.849,169.865 180.502 L 175.694 185.182 177.694 183.045 C 195.101 164.436,224.908 172.441,230.417 197.205 C 230.719 198.561,231.080 199.671,231.219 199.671 C 231.359 199.671,235.826 198.177,241.147 196.351 C 246.469 194.525,253.191 192.241,256.086 191.274 C 258.980 190.308,264.827 188.319,269.079 186.856 C 273.331 185.392,280.066 183.098,284.046 181.759 C 288.026 180.419,295.428 177.895,300.493 176.149 C 305.559 174.403,310.592 172.699,311.678 172.363 C 316.761 170.789,316.852 170.723,316.132 169.142 C 314.864 166.359,314.493 159.983,315.308 154.961 C 315.915 151.217,316.855 151.942,307.401 148.861 C 303.059 147.447,294.474 144.625,288.322 142.591 C 282.171 140.558,275.214 138.277,272.862 137.522 C 270.510 136.767,268.067 135.944,267.434 135.693 C 266.801 135.442,260.732 133.440,253.947 131.243 C 247.163 129.046,241.094 127.047,240.461 126.799 C 235.763 124.965,229.550 123.191,229.167 123.575 M111.282 142.667 C 110.749 143.353,109.141 145.592,107.706 147.642 C 106.272 149.692,104.022 152.875,102.705 154.714 C 99.338 159.420,99.385 159.292,100.468 160.773 C 102.412 163.431,106.769 169.485,107.237 170.176 C 109.332 173.275,112.615 177.632,112.856 177.632 C 113.017 177.632,114.816 176.348,116.854 174.778 C 121.398 171.279,134.543 160.919,135.135 160.370 C 135.481 160.048,134.969 159.502,132.503 157.561 C 130.819 156.235,125.694 152.105,121.115 148.381 C 111.386 140.471,112.487 141.111,111.282 142.667 M134.815 167.773 C 132.040 169.949,129.548 171.912,129.276 172.135 C 129.005 172.358,127.821 173.275,126.645 174.173 C 122.389 177.421,116.283 182.350,116.283 182.538 C 116.283 182.748,118.626 186.214,120.821 189.249 C 121.581 190.302,124.868 194.919,128.125 199.509 C 134.794 208.909,134.037 208.324,138.178 207.275 C 139.524 206.934,142.401 206.249,144.572 205.752 C 146.743 205.255,150.592 204.366,153.125 203.775 C 155.658 203.185,159.211 202.375,161.020 201.976 C 162.829 201.576,165.555 200.931,167.079 200.543 L 169.848 199.836 170.252 197.844 C 170.474 196.749,171.056 194.751,171.544 193.403 C 172.797 189.948,172.888 190.194,169.243 187.205 C 165.377 184.035,146.071 168.438,142.656 165.724 C 139.734 163.404,140.711 163.148,134.815 167.773 M92.368 169.274 C 90.505 171.913,88.759 174.393,88.489 174.783 C 86.521 177.627,76.524 191.742,74.059 195.156 C 70.352 200.291,70.463 199.988,71.931 200.985 C 72.595 201.437,74.078 202.658,75.227 203.699 C 76.376 204.740,77.375 205.592,77.447 205.592 C 77.559 205.592,88.020 197.414,89.962 195.809 C 90.321 195.512,92.246 194.016,94.239 192.484 C 101.409 186.972,108.224 181.490,108.224 181.233 C 108.224 181.089,107.882 180.553,107.464 180.042 C 107.047 179.530,105.294 177.113,103.569 174.671 C 97.703 166.365,96.305 164.474,96.030 164.474 C 95.879 164.474,94.232 166.634,92.368 169.274 M309.868 178.814 C 305.436 180.338,298.035 182.861,293.421 184.420 C 288.808 185.980,282.294 188.206,278.947 189.367 C 275.600 190.528,270.493 192.273,267.599 193.245 C 262.834 194.845,255.782 197.242,237.737 203.395 C 230.391 205.900,231.331 205.105,230.400 209.608 C 226.174 230.064,204.230 240.233,185.525 230.404 C 177.705 226.295,170.066 214.992,170.066 207.531 C 170.066 205.721,169.895 205.613,167.824 206.114 C 166.795 206.364,163.289 207.177,160.033 207.921 C 156.776 208.666,153.298 209.468,152.303 209.705 C 146.019 211.200,144.268 211.603,141.663 212.150 C 137.370 213.051,136.917 211.701,145.545 223.714 C 147.181 225.992,150.074 230.029,151.974 232.684 C 153.873 235.339,156.839 239.470,158.564 241.864 C 160.289 244.258,162.522 247.401,163.526 248.849 C 165.097 251.114,174.104 263.693,176.599 267.105 C 177.062 267.738,177.487 268.321,177.543 268.401 C 177.599 268.480,178.271 267.945,179.037 267.213 C 195.052 251.882,223.264 259.187,229.119 280.181 C 229.434 281.312,229.785 282.237,229.899 282.237 C 230.091 282.237,239.354 272.783,252.614 259.055 C 255.590 255.974,260.031 251.380,262.483 248.844 C 264.935 246.309,269.013 242.090,271.546 239.468 C 274.079 236.846,279.252 231.519,283.041 227.630 C 297.088 213.214,300.703 209.492,309.552 200.329 C 314.532 195.173,320.082 189.426,321.885 187.559 C 325.924 183.376,325.800 183.931,323.287 181.312 C 322.126 180.102,320.698 178.409,320.112 177.549 C 318.784 175.601,319.460 175.517,309.868 178.814 M108.059 188.709 C 106.250 190.093,103.067 192.578,100.987 194.232 C 97.063 197.352,82.163 209.084,81.268 209.759 C 80.819 210.098,80.887 210.395,81.850 212.272 C 82.451 213.443,83.291 215.490,83.716 216.822 C 84.717 219.952,83.847 219.965,97.697 216.618 C 100.140 216.027,103.618 215.214,105.428 214.811 C 107.237 214.407,110.197 213.733,112.007 213.311 C 113.816 212.890,116.406 212.294,117.763 211.987 C 122.356 210.949,128.074 209.536,128.202 209.407 C 128.312 209.297,119.640 196.927,114.919 190.461 C 114.060 189.285,113.009 187.841,112.583 187.253 C 111.590 185.882,111.878 185.789,108.059 188.709 M130.428 214.700 C 130.066 214.782,127.697 215.353,125.164 215.969 C 122.632 216.584,118.191 217.625,115.296 218.283 C 112.401 218.940,109.219 219.670,108.224 219.905 C 103.954 220.915,96.885 222.550,90.140 224.088 L 85.378 225.174 84.971 229.281 C 84.572 233.315,83.781 236.395,82.487 238.958 C 81.664 240.586,81.553 240.498,87.259 242.764 C 89.653 243.715,93.832 245.422,96.546 246.557 C 101.498 248.628,105.615 250.317,116.612 254.789 C 130.371 260.385,132.450 261.236,133.388 261.657 C 135.279 262.507,140.020 264.459,147.862 267.618 C 152.204 269.367,157.089 271.365,158.717 272.059 C 172.965 278.129,171.626 277.830,172.904 275.225 C 173.936 273.121,173.941 272.701,172.948 271.550 C 172.790 271.367,170.289 267.887,167.392 263.816 C 164.494 259.745,161.107 255.008,159.865 253.289 C 158.623 251.571,156.228 248.216,154.543 245.835 C 152.859 243.454,148.372 237.180,144.572 231.894 C 140.773 226.608,137.220 221.664,136.678 220.908 C 136.135 220.151,135.042 218.579,134.250 217.414 C 132.265 214.498,132.035 214.334,130.428 214.700 " stroke="none" fill="#f4f4f4" fill-rule="evenodd"></path><path id="path2" d="M220.724 7.730 C 221.337 8.363,221.914 8.882,222.004 8.882 C 222.095 8.882,221.666 8.363,221.053 7.730 C 220.439 7.097,219.863 6.579,219.772 6.579 C 219.682 6.579,220.110 7.097,220.724 7.730 M228.189 17.924 C 228.490 18.554,228.795 19.012,228.866 18.941 C 229.017 18.790,228.018 16.776,227.793 16.776 C 227.710 16.776,227.888 17.293,228.189 17.924 M230.675 26.480 C 230.679 27.204,230.746 27.461,230.825 27.052 C 230.903 26.643,230.900 26.051,230.818 25.736 C 230.736 25.422,230.671 25.757,230.675 26.480 M169.847 30.263 C 169.847 31.620,169.906 32.175,169.976 31.497 C 170.047 30.818,170.047 29.708,169.976 29.030 C 169.906 28.351,169.847 28.906,169.847 30.263 M230.984 29.955 C 230.924 32.008,230.973 32.161,231.990 33.080 L 233.059 34.046 232.172 33.059 C 231.441 32.246,231.264 31.697,231.167 29.934 L 231.048 27.796 230.984 29.955 M168.421 36.349 C 167.969 36.607,167.747 36.819,167.928 36.819 C 168.109 36.819,168.627 36.607,169.079 36.349 C 169.531 36.090,169.753 35.879,169.572 35.879 C 169.391 35.879,168.873 36.090,168.421 36.349 M237.823 39.227 C 241.026 42.511,241.447 42.913,241.447 42.675 C 241.447 42.627,239.856 41.035,237.911 39.139 L 234.375 35.691 237.823 39.227 M229.736 39.556 C 229.606 39.782,229.625 39.853,229.778 39.715 C 229.930 39.576,230.583 39.946,231.228 40.537 L 232.401 41.612 231.268 40.378 C 229.975 38.972,230.050 39.012,229.736 39.556 M156.908 41.283 C 156.456 41.541,156.234 41.753,156.414 41.753 C 156.595 41.753,157.113 41.541,157.566 41.283 C 158.018 41.024,158.240 40.813,158.059 40.813 C 157.878 40.813,157.360 41.024,156.908 41.283 M234.704 43.750 C 235.778 44.836,236.731 45.724,236.822 45.724 C 236.912 45.724,236.107 44.836,235.033 43.750 C 233.959 42.664,233.006 41.776,232.915 41.776 C 232.825 41.776,233.630 42.664,234.704 43.750 M246.546 48.355 C 248.530 50.345,250.227 51.974,250.318 51.974 C 250.408 51.974,248.859 50.345,246.875 48.355 C 244.891 46.365,243.194 44.737,243.103 44.737 C 243.013 44.737,244.562 46.365,246.546 48.355 M145.395 46.217 C 144.942 46.476,144.720 46.687,144.901 46.687 C 145.082 46.687,145.600 46.476,146.053 46.217 C 146.505 45.959,146.727 45.747,146.546 45.747 C 146.365 45.747,145.847 45.959,145.395 46.217 M171.711 47.697 C 171.324 48.240,171.082 48.684,171.172 48.684 C 171.263 48.684,171.653 48.240,172.039 47.697 C 172.426 47.155,172.668 46.711,172.578 46.711 C 172.487 46.711,172.097 47.155,171.711 47.697 M238.158 47.471 C 238.158 47.528,238.639 48.009,239.227 48.540 L 240.296 49.507 239.330 48.438 C 238.429 47.441,238.158 47.217,238.158 47.471 M153.618 48.520 C 153.166 48.778,152.944 48.990,153.125 48.990 C 153.306 48.990,153.824 48.778,154.276 48.520 C 154.729 48.261,154.951 48.050,154.770 48.050 C 154.589 48.050,154.071 48.261,153.618 48.520 M242.928 52.303 C 244.367 53.750,245.618 54.934,245.708 54.934 C 245.799 54.934,244.695 53.750,243.257 52.303 C 241.818 50.855,240.566 49.671,240.476 49.671 C 240.386 49.671,241.489 50.855,242.928 52.303 M221.863 52.385 L 220.230 54.112 221.957 52.479 C 222.907 51.582,223.684 50.805,223.684 50.752 C 223.684 50.507,223.379 50.780,221.863 52.385 M141.447 53.783 C 140.995 54.041,140.773 54.253,140.954 54.253 C 141.135 54.253,141.653 54.041,142.105 53.783 C 142.558 53.524,142.780 53.313,142.599 53.313 C 142.418 53.313,141.900 53.524,141.447 53.783 M254.112 56.250 C 255.551 57.697,256.802 58.882,256.892 58.882 C 256.983 58.882,255.880 57.697,254.441 56.250 C 253.002 54.803,251.751 53.618,251.660 53.618 C 251.570 53.618,252.673 54.803,254.112 56.250 M136.184 56.086 C 135.732 56.344,135.510 56.556,135.691 56.556 C 135.872 56.556,136.390 56.344,136.842 56.086 C 137.294 55.827,137.516 55.615,137.336 55.615 C 137.155 55.615,136.637 55.827,136.184 56.086 M249.507 59.211 C 251.491 61.201,253.188 62.829,253.278 62.829 C 253.369 62.829,251.819 61.201,249.836 59.211 C 247.852 57.220,246.154 55.592,246.064 55.592 C 245.973 55.592,247.523 57.220,249.507 59.211 M121.711 56.414 C 121.258 56.673,121.036 56.885,121.217 56.885 C 121.398 56.885,121.916 56.673,122.368 56.414 C 122.821 56.156,123.043 55.944,122.862 55.944 C 122.681 55.944,122.163 56.156,121.711 56.414 M133.059 57.413 C 132.233 57.811,132.206 57.856,132.895 57.690 C 133.347 57.581,133.858 57.360,134.030 57.200 C 134.456 56.802,134.222 56.853,133.059 57.413 M129.934 58.717 C 129.482 58.976,129.260 59.187,129.441 59.187 C 129.622 59.187,130.140 58.976,130.592 58.717 C 131.044 58.459,131.266 58.247,131.086 58.247 C 130.905 58.247,130.387 58.459,129.934 58.717 M188.158 58.717 C 188.610 58.976,189.128 59.187,189.309 59.187 C 189.490 59.187,189.268 58.976,188.816 58.717 C 188.363 58.459,187.845 58.247,187.664 58.247 C 187.484 58.247,187.706 58.459,188.158 58.717 M198.937 61.094 C 199.528 61.167,200.416 61.165,200.910 61.090 C 201.405 61.015,200.921 60.955,199.836 60.957 C 198.750 60.959,198.346 61.020,198.937 61.094 M259.539 61.933 C 259.539 61.982,260.687 63.130,262.089 64.482 L 264.638 66.941 262.179 64.391 C 259.896 62.024,259.539 61.692,259.539 61.933 M53.711 62.413 C 54.575 62.481,55.908 62.480,56.671 62.411 C 57.435 62.342,56.727 62.287,55.099 62.288 C 53.470 62.289,52.846 62.345,53.711 62.413 M59.238 62.621 C 59.313 62.687,59.967 62.832,60.691 62.942 C 61.608 63.082,61.807 63.052,61.349 62.844 C 60.717 62.558,58.955 62.372,59.238 62.621 M40.461 65.811 C 39.466 66.360,38.504 66.963,38.323 67.151 C 38.059 67.426,42.234 65.306,42.736 64.911 C 43.319 64.451,41.936 64.999,40.461 65.811 M258.059 68.082 C 259.868 69.976,261.386 71.591,261.431 71.673 C 261.476 71.754,261.582 71.751,261.667 71.666 C 261.751 71.582,260.234 69.966,258.295 68.075 L 254.770 64.638 258.059 68.082 M164.803 66.776 C 164.416 67.319,164.174 67.763,164.264 67.763 C 164.355 67.763,164.745 67.319,165.132 66.776 C 165.518 66.234,165.760 65.789,165.670 65.789 C 165.579 65.789,165.189 66.234,164.803 66.776 M110.197 67.270 C 109.745 67.528,109.523 67.740,109.704 67.740 C 109.885 67.740,110.403 67.528,110.855 67.270 C 111.308 67.011,111.530 66.800,111.349 66.800 C 111.168 66.800,110.650 67.011,110.197 67.270 M75.987 70.888 C 77.152 72.064,78.180 73.026,78.270 73.026 C 78.361 73.026,77.481 72.064,76.316 70.888 C 75.150 69.712,74.123 68.750,74.032 68.750 C 73.942 68.750,74.821 69.712,75.987 70.888 M33.047 71.464 L 31.414 73.191 33.141 71.558 C 34.746 70.042,35.019 69.737,34.774 69.737 C 34.722 69.737,33.945 70.514,33.047 71.464 M268.421 71.143 C 268.421 71.193,269.568 72.340,270.970 73.692 L 273.520 76.151 271.061 73.602 C 268.777 71.234,268.421 70.903,268.421 71.143 M153.947 72.697 C 153.561 73.240,153.319 73.684,153.409 73.684 C 153.500 73.684,153.890 73.240,154.276 72.697 C 154.663 72.155,154.905 71.711,154.815 71.711 C 154.724 71.711,154.334 72.155,153.947 72.697 M266.447 76.809 C 268.159 78.528,269.633 79.934,269.724 79.934 C 269.814 79.934,268.488 78.528,266.776 76.809 C 265.065 75.090,263.590 73.684,263.500 73.684 C 263.409 73.684,264.736 75.090,266.447 76.809 M29.353 75.905 C 28.501 77.135,28.224 77.632,28.391 77.632 C 28.468 77.632,28.923 77.039,29.402 76.316 C 30.375 74.845,30.333 74.489,29.353 75.905 M82.904 79.101 C 82.684 79.366,82.580 79.773,82.673 80.005 C 82.782 80.277,82.852 80.229,82.869 79.868 C 82.883 79.561,83.154 79.158,83.470 78.974 C 83.787 78.789,83.879 78.634,83.675 78.628 C 83.471 78.623,83.124 78.835,82.904 79.101 M148.355 80.592 C 147.969 81.135,147.727 81.579,147.817 81.579 C 147.908 81.579,148.298 81.135,148.684 80.592 C 149.071 80.049,149.313 79.605,149.222 79.605 C 149.132 79.605,148.742 80.049,148.355 80.592 M279.770 82.895 C 281.390 84.523,282.791 85.855,282.881 85.855 C 282.971 85.855,281.719 84.523,280.099 82.895 C 278.478 81.266,277.078 79.934,276.987 79.934 C 276.897 79.934,278.149 81.266,279.770 82.895 M274.671 85.362 C 276.746 87.442,278.517 89.145,278.608 89.145 C 278.698 89.145,277.075 87.442,275.000 85.362 C 272.925 83.281,271.154 81.579,271.063 81.579 C 270.973 81.579,272.596 83.281,274.671 85.362 M198.279 86.752 C 198.870 86.825,199.758 86.823,200.253 86.748 C 200.747 86.673,200.263 86.613,199.178 86.615 C 198.092 86.617,197.688 86.678,198.279 86.752 M202.056 87.069 C 202.373 87.152,202.891 87.152,203.207 87.069 C 203.524 86.986,203.265 86.918,202.632 86.918 C 201.998 86.918,201.739 86.986,202.056 87.069 M284.868 88.027 C 284.868 88.197,286.312 89.739,288.076 91.454 L 291.283 94.572 288.158 91.293 C 286.439 89.490,284.996 87.948,284.951 87.867 C 284.905 87.786,284.868 87.858,284.868 88.027 M85.274 89.474 C 85.274 90.107,85.341 90.366,85.424 90.049 C 85.507 89.733,85.507 89.215,85.424 88.898 C 85.341 88.581,85.274 88.840,85.274 89.474 M210.855 89.309 C 211.308 89.568,211.826 89.779,212.007 89.779 C 212.188 89.779,211.965 89.568,211.513 89.309 C 211.061 89.051,210.543 88.839,210.362 88.839 C 210.181 88.839,210.403 89.051,210.855 89.309 M24.464 92.763 C 24.464 94.663,24.518 95.440,24.585 94.490 C 24.651 93.540,24.651 91.986,24.585 91.036 C 24.518 90.086,24.464 90.863,24.464 92.763 M141.118 90.789 C 140.732 91.332,140.490 91.776,140.580 91.776 C 140.671 91.776,141.061 91.332,141.447 90.789 C 141.834 90.247,142.076 89.803,141.986 89.803 C 141.895 89.803,141.505 90.247,141.118 90.789 M283.059 94.079 C 285.225 96.250,287.070 98.026,287.161 98.026 C 287.251 98.026,285.554 96.250,283.388 94.079 C 281.223 91.908,279.377 90.132,279.287 90.132 C 279.196 90.132,280.894 91.908,283.059 94.079 M85.526 92.579 C 85.526 93.021,85.648 93.457,85.796 93.549 C 85.944 93.640,86.001 93.279,85.923 92.746 C 85.750 91.570,85.526 91.476,85.526 92.579 M139.145 93.586 C 138.585 94.400,138.200 95.066,138.291 95.066 C 138.381 95.066,138.914 94.400,139.474 93.586 C 140.034 92.771,140.418 92.105,140.328 92.105 C 140.237 92.105,139.705 92.771,139.145 93.586 M177.273 95.970 C 175.776 97.528,173.747 99.959,174.871 98.849 C 176.101 97.634,179.354 94.079,179.236 94.079 C 179.156 94.079,178.273 94.930,177.273 95.970 M220.888 96.053 C 221.962 97.138,222.915 98.026,223.006 98.026 C 223.096 98.026,222.291 97.138,221.217 96.053 C 220.143 94.967,219.190 94.079,219.100 94.079 C 219.009 94.079,219.814 94.967,220.888 96.053 M295.888 99.671 C 297.327 101.118,298.578 102.303,298.669 102.303 C 298.759 102.303,297.656 101.118,296.217 99.671 C 294.778 98.224,293.527 97.039,293.436 97.039 C 293.346 97.039,294.449 98.224,295.888 99.671 M90.296 100.329 C 90.658 100.484,91.250 100.607,91.612 100.602 C 92.141 100.594,92.108 100.541,91.447 100.329 C 90.323 99.969,89.458 99.969,90.296 100.329 M291.941 103.289 C 293.743 105.099,295.292 106.579,295.382 106.579 C 295.473 106.579,294.072 105.099,292.270 103.289 C 290.467 101.480,288.919 100.000,288.828 100.000 C 288.738 100.000,290.138 101.480,291.941 103.289 M133.049 102.220 C 132.548 102.899,131.902 103.656,131.612 103.903 C 131.263 104.201,131.235 104.308,131.531 104.221 C 131.956 104.095,134.442 100.987,134.117 100.987 C 134.030 100.987,133.550 101.542,133.049 102.220 M95.888 101.645 C 96.250 101.800,96.768 101.927,97.039 101.927 C 97.350 101.927,97.290 101.823,96.875 101.645 C 96.513 101.489,95.995 101.362,95.724 101.362 C 95.413 101.362,95.473 101.467,95.888 101.645 M126.316 103.289 C 127.441 103.650,128.305 103.650,127.467 103.289 C 127.105 103.134,126.513 103.011,126.151 103.016 C 125.622 103.024,125.655 103.078,126.316 103.289 M171.530 103.978 C 171.241 104.538,171.063 105.054,171.134 105.125 C 171.205 105.196,171.510 104.739,171.811 104.108 C 172.487 102.689,172.253 102.581,171.530 103.978 M304.112 108.224 C 305.733 109.852,307.133 111.184,307.223 111.184 C 307.314 111.184,306.062 109.852,304.441 108.224 C 302.820 106.595,301.420 105.263,301.330 105.263 C 301.239 105.263,302.491 106.595,304.112 108.224 M300.000 111.678 C 302.075 113.758,303.846 115.461,303.937 115.461 C 304.027 115.461,302.404 113.758,300.329 111.678 C 298.254 109.597,296.483 107.895,296.392 107.895 C 296.302 107.895,297.925 109.597,300.000 111.678 M29.927 110.845 C 30.310 111.383,30.791 111.926,30.996 112.053 C 31.201 112.180,30.955 111.740,30.448 111.076 C 29.349 109.634,28.934 109.451,29.927 110.845 M133.357 111.266 C 132.735 112.001,132.736 112.002,133.388 111.465 C 133.750 111.167,134.342 110.851,134.704 110.763 C 135.337 110.609,135.335 110.601,134.673 110.564 C 134.294 110.543,133.702 110.859,133.357 111.266 M138.980 111.842 C 139.342 111.998,139.934 112.120,140.296 112.115 C 140.825 112.107,140.793 112.054,140.132 111.842 C 139.007 111.482,138.142 111.482,138.980 111.842 M168.750 112.445 C 168.750 112.656,168.417 112.846,168.010 112.867 C 167.401 112.899,167.378 112.933,167.880 113.062 C 168.536 113.231,169.346 112.657,168.975 112.286 C 168.851 112.163,168.750 112.234,168.750 112.445 M32.881 114.227 C 33.688 115.086,34.391 115.789,34.443 115.789 C 34.690 115.789,34.429 115.494,32.977 114.131 L 31.414 112.664 32.881 114.227 M229.353 113.816 C 229.353 114.449,229.420 114.708,229.503 114.391 C 229.586 114.075,229.586 113.557,229.503 113.240 C 229.420 112.924,229.353 113.183,229.353 113.816 M75.164 115.703 C 73.898 116.906,73.306 117.577,73.849 117.195 C 74.811 116.518,77.918 113.473,77.618 113.501 C 77.535 113.509,76.431 114.500,75.164 115.703 M124.342 114.474 C 123.956 115.016,123.713 115.461,123.804 115.461 C 123.894 115.461,124.285 115.016,124.671 114.474 C 125.058 113.931,125.300 113.487,125.209 113.487 C 125.119 113.487,124.729 113.931,124.342 114.474 M312.664 117.105 C 314.285 118.734,315.685 120.066,315.776 120.066 C 315.866 120.066,314.614 118.734,312.993 117.105 C 311.373 115.477,309.973 114.145,309.882 114.145 C 309.792 114.145,311.044 115.477,312.664 117.105 M129.934 115.954 C 129.374 116.768,128.990 117.434,129.080 117.434 C 129.171 117.434,129.703 116.768,130.263 115.954 C 130.823 115.140,131.208 114.474,131.117 114.474 C 131.027 114.474,130.494 115.140,129.934 115.954 M307.072 119.079 C 308.875 120.888,310.424 122.368,310.514 122.368 C 310.604 122.368,309.204 120.888,307.401 119.079 C 305.599 117.270,304.050 115.789,303.960 115.789 C 303.869 115.789,305.270 117.270,307.072 119.079 M71.562 118.543 C 70.663 119.262,70.898 121.053,71.890 121.053 C 71.981 121.053,71.804 120.671,71.499 120.204 C 70.956 119.376,70.966 119.337,71.902 118.571 C 72.430 118.140,72.788 117.782,72.697 117.777 C 72.607 117.771,72.096 118.116,71.562 118.543 M165.625 118.092 C 165.987 118.248,166.579 118.370,166.941 118.365 C 167.470 118.357,167.437 118.304,166.776 118.092 C 165.652 117.732,164.787 117.732,165.625 118.092 M167.972 118.643 C 168.177 118.792,168.426 119.211,168.526 119.572 C 168.669 120.091,168.694 120.062,168.646 119.434 C 168.613 118.996,168.363 118.577,168.092 118.504 C 167.766 118.416,167.725 118.463,167.972 118.643 M119.737 121.053 C 119.350 121.595,119.108 122.039,119.199 122.039 C 119.289 122.039,119.679 121.595,120.066 121.053 C 120.452 120.510,120.694 120.066,120.604 120.066 C 120.514 120.066,120.123 120.510,119.737 121.053 M320.559 125.329 C 322.362 127.138,323.910 128.618,324.001 128.618 C 324.091 128.618,322.691 127.138,320.888 125.329 C 319.086 123.520,317.537 122.039,317.447 122.039 C 317.356 122.039,318.757 123.520,320.559 125.329 M74.013 124.178 C 74.573 124.992,75.106 125.658,75.196 125.658 C 75.287 125.658,74.902 124.992,74.342 124.178 C 73.782 123.363,73.250 122.697,73.159 122.697 C 73.069 122.697,73.453 123.363,74.013 124.178 M58.635 123.253 C 58.951 123.336,59.470 123.336,59.786 123.253 C 60.103 123.170,59.844 123.103,59.211 123.103 C 58.577 123.103,58.318 123.170,58.635 123.253 M53.536 123.596 C 54.305 123.665,55.563 123.665,56.332 123.596 C 57.101 123.527,56.472 123.470,54.934 123.470 C 53.396 123.470,52.767 123.527,53.536 123.596 M312.171 124.211 C 312.171 124.380,313.762 126.070,315.707 127.966 L 319.243 131.414 315.789 127.807 C 313.890 125.822,312.299 124.132,312.253 124.051 C 312.208 123.970,312.171 124.042,312.171 124.211 M69.737 127.467 C 70.297 128.281,70.829 128.947,70.920 128.947 C 71.010 128.947,70.626 128.281,70.066 127.467 C 69.506 126.653,68.973 125.987,68.883 125.987 C 68.792 125.987,69.177 126.653,69.737 127.467 M259.211 127.247 C 259.482 127.415,260.074 127.651,260.526 127.772 C 261.098 127.925,261.198 127.899,260.855 127.687 C 260.584 127.519,259.992 127.283,259.539 127.162 C 258.968 127.009,258.868 127.035,259.211 127.247 M266.118 129.550 C 266.390 129.717,266.982 129.954,267.434 130.075 C 268.006 130.227,268.106 130.202,267.763 129.990 C 267.492 129.822,266.900 129.586,266.447 129.465 C 265.876 129.312,265.775 129.338,266.118 129.550 M348.383 129.728 C 348.458 129.795,349.260 129.935,350.164 130.040 C 351.274 130.168,351.541 130.139,350.987 129.950 C 350.165 129.671,348.124 129.496,348.383 129.728 M118.592 131.942 C 117.929 132.866,117.543 133.524,117.735 133.406 C 118.135 133.158,120.174 130.263,119.948 130.263 C 119.866 130.263,119.256 131.019,118.592 131.942 M251.974 130.537 C 252.245 130.704,252.837 130.940,253.289 131.061 C 253.861 131.214,253.961 131.188,253.618 130.977 C 253.347 130.809,252.755 130.573,252.303 130.452 C 251.731 130.299,251.631 130.325,251.974 130.537 M99.444 130.820 C 99.721 131.268,102.303 133.351,102.303 133.126 C 102.303 133.043,101.606 132.403,100.755 131.706 C 99.905 131.009,99.314 130.610,99.444 130.820 M270.066 130.866 C 270.337 131.033,270.929 131.269,271.382 131.390 C 271.953 131.543,272.053 131.517,271.711 131.305 C 271.439 131.138,270.847 130.902,270.395 130.781 C 269.823 130.628,269.723 130.654,270.066 130.866 M327.618 132.648 C 329.218 134.353,329.494 134.456,330.447 133.712 C 331.038 133.250,331.017 133.242,330.170 133.605 C 329.315 133.971,329.153 133.902,327.703 132.541 L 326.151 131.086 327.618 132.648 M110.002 132.484 C 110.666 133.268,111.343 133.436,111.675 132.899 C 111.792 132.710,111.656 132.658,111.354 132.774 C 111.065 132.885,110.505 132.699,110.103 132.359 L 109.375 131.743 110.002 132.484 M322.533 135.197 C 323.607 136.283,324.560 137.171,324.650 137.171 C 324.741 137.171,323.936 136.283,322.862 135.197 C 321.788 134.112,320.835 133.224,320.744 133.224 C 320.654 133.224,321.459 134.112,322.533 135.197 M82.566 136.184 C 82.952 136.727,83.342 137.171,83.433 137.171 C 83.523 137.171,83.281 136.727,82.895 136.184 C 82.508 135.641,82.118 135.197,82.028 135.197 C 81.937 135.197,82.179 135.641,82.566 136.184 M76.645 137.171 C 77.031 137.714,77.421 138.158,77.512 138.158 C 77.602 138.158,77.360 137.714,76.974 137.171 C 76.587 136.628,76.197 136.184,76.107 136.184 C 76.016 136.184,76.258 136.628,76.645 137.171 M367.105 138.651 C 368.088 139.646,368.966 140.461,369.056 140.461 C 369.147 140.461,368.417 139.646,367.434 138.651 C 366.452 137.656,365.573 136.842,365.483 136.842 C 365.393 136.842,366.123 137.656,367.105 138.651 M177.632 139.309 C 178.797 140.485,179.825 141.447,179.915 141.447 C 180.006 141.447,179.126 140.485,177.961 139.309 C 176.795 138.133,175.767 137.171,175.677 137.171 C 175.586 137.171,176.466 138.133,177.632 139.309 M323.178 139.227 L 321.546 140.954 323.273 139.322 C 324.878 137.805,325.151 137.500,324.905 137.500 C 324.853 137.500,324.076 138.277,323.178 139.227 M219.557 140.214 L 218.257 141.612 219.655 140.312 C 220.955 139.102,221.204 138.816,220.955 138.816 C 220.901 138.816,220.272 139.445,219.557 140.214 M79.276 140.789 C 79.663 141.332,80.053 141.776,80.143 141.776 C 80.234 141.776,79.992 141.332,79.605 140.789 C 79.219 140.247,78.829 139.803,78.738 139.803 C 78.648 139.803,78.890 140.247,79.276 140.789 M282.895 140.734 C 283.166 140.902,283.758 141.138,284.211 141.259 C 284.782 141.412,284.882 141.386,284.539 141.174 C 284.268 141.006,283.676 140.770,283.224 140.649 C 282.652 140.496,282.552 140.522,282.895 140.734 M104.871 142.023 C 104.291 142.698,103.857 143.421,104.031 143.421 C 104.098 143.421,104.481 142.977,104.882 142.434 C 105.675 141.362,105.668 141.095,104.871 142.023 M286.678 142.105 C 287.039 142.261,287.558 142.388,287.829 142.388 C 288.140 142.388,288.079 142.283,287.664 142.105 C 287.303 141.950,286.785 141.823,286.513 141.823 C 286.202 141.823,286.263 141.927,286.678 142.105 M87.499 143.010 C 87.929 143.598,88.333 144.079,88.396 144.079 C 88.646 144.079,87.830 142.845,87.291 142.407 C 86.935 142.119,87.015 142.348,87.499 143.010 M212.500 144.737 C 211.867 145.084,211.467 145.373,211.612 145.381 C 211.960 145.399,213.816 144.434,213.816 144.235 C 213.816 144.020,213.797 144.027,212.500 144.737 M294.243 144.584 C 294.786 144.833,295.452 145.032,295.724 145.026 C 295.995 145.020,295.699 144.816,295.066 144.572 C 293.564 143.994,292.973 144.003,294.243 144.584 M154.348 145.313 C 153.561 146.081,153.548 146.119,154.260 145.564 C 155.664 144.471,155.731 144.408,155.499 144.408 C 155.375 144.408,154.857 144.815,154.348 145.313 M101.974 146.053 C 101.587 146.595,101.345 147.039,101.435 147.039 C 101.526 147.039,101.916 146.595,102.303 146.053 C 102.689 145.510,102.931 145.066,102.841 145.066 C 102.750 145.066,102.360 145.510,101.974 146.053 M298.191 145.900 C 298.734 146.149,299.400 146.347,299.671 146.342 C 299.942 146.336,299.646 146.132,299.013 145.888 C 297.511 145.310,296.920 145.318,298.191 145.900 M107.895 147.039 C 107.508 147.582,107.266 148.026,107.357 148.026 C 107.447 148.026,107.837 147.582,108.224 147.039 C 108.610 146.497,108.852 146.053,108.762 146.053 C 108.671 146.053,108.281 146.497,107.895 147.039 M151.316 147.725 L 149.836 149.067 151.398 147.849 C 152.768 146.782,153.174 146.379,152.878 146.382 C 152.833 146.383,152.130 146.987,151.316 147.725 M84.211 147.697 C 84.597 148.240,84.987 148.684,85.078 148.684 C 85.168 148.684,84.926 148.240,84.539 147.697 C 84.153 147.155,83.763 146.711,83.672 146.711 C 83.582 146.711,83.824 147.155,84.211 147.697 M205.592 147.230 L 204.112 147.684 205.428 147.496 C 206.151 147.393,206.965 147.178,207.237 147.019 C 207.921 146.619,207.339 146.693,205.592 147.230 M159.027 148.454 C 158.111 149.214,156.853 150.252,156.230 150.761 C 155.185 151.617,155.212 151.610,156.579 150.680 C 158.088 149.653,161.154 147.065,160.855 147.070 C 160.765 147.072,159.942 147.695,159.027 148.454 M309.868 149.616 C 310.140 149.783,310.732 150.019,311.184 150.140 C 311.756 150.293,311.856 150.267,311.513 150.055 C 311.242 149.888,310.650 149.652,310.197 149.531 C 309.626 149.378,309.525 149.404,309.868 149.616 M123.026 149.774 C 123.026 149.865,123.766 150.558,124.671 151.316 C 125.576 152.073,126.316 152.619,126.316 152.528 C 126.316 152.438,125.576 151.744,124.671 150.987 C 123.766 150.229,123.026 149.684,123.026 149.774 M98.026 151.645 C 97.640 152.188,97.398 152.632,97.488 152.632 C 97.579 152.632,97.969 152.188,98.355 151.645 C 98.742 151.102,98.984 150.658,98.893 150.658 C 98.803 150.658,98.413 151.102,98.026 151.645 M313.651 150.987 C 314.013 151.142,314.531 151.270,314.803 151.270 C 315.114 151.270,315.053 151.165,314.638 150.987 C 314.276 150.831,313.758 150.704,313.487 150.704 C 313.176 150.704,313.237 150.809,313.651 150.987 M94.408 152.632 C 94.794 153.174,95.185 153.618,95.275 153.618 C 95.366 153.618,95.123 153.174,94.737 152.632 C 94.350 152.089,93.960 151.645,93.870 151.645 C 93.779 151.645,94.021 152.089,94.408 152.632 M100.658 157.237 C 100.271 157.780,100.029 158.224,100.120 158.224 C 100.210 158.224,100.600 157.780,100.987 157.237 C 101.373 156.694,101.616 156.250,101.525 156.250 C 101.435 156.250,101.044 156.694,100.658 157.237 M314.897 158.717 C 314.899 159.622,314.963 159.953,315.039 159.453 C 315.114 158.953,315.112 158.213,315.034 157.808 C 314.956 157.403,314.894 157.813,314.897 158.717 M314.897 162.336 C 314.899 163.240,314.963 163.571,315.039 163.071 C 315.114 162.571,315.112 161.831,315.034 161.426 C 314.956 161.022,314.894 161.431,314.897 162.336 M102.632 164.145 C 103.018 164.688,103.408 165.132,103.499 165.132 C 103.589 165.132,103.347 164.688,102.961 164.145 C 102.574 163.602,102.184 163.158,102.093 163.158 C 102.003 163.158,102.245 163.602,102.632 164.145 M139.607 163.867 C 139.460 164.104,139.517 164.157,139.758 164.008 C 139.974 163.874,140.754 164.226,141.535 164.811 L 142.928 165.852 141.612 164.674 C 140.174 163.387,139.957 163.300,139.607 163.867 M95.353 164.720 C 94.944 165.242,94.955 165.254,95.477 164.845 C 95.965 164.462,96.140 164.462,96.628 164.845 C 97.150 165.254,97.162 165.242,96.752 164.720 C 96.504 164.404,96.189 164.145,96.053 164.145 C 95.916 164.145,95.601 164.404,95.353 164.720 M87.500 166.447 C 87.114 166.990,86.871 167.434,86.962 167.434 C 87.052 167.434,87.442 166.990,87.829 166.447 C 88.215 165.905,88.458 165.461,88.367 165.461 C 88.277 165.461,87.886 165.905,87.500 166.447 M104.276 166.447 C 104.663 166.990,105.053 167.434,105.143 167.434 C 105.234 167.434,104.992 166.990,104.605 166.447 C 104.219 165.905,103.829 165.461,103.738 165.461 C 103.648 165.461,103.890 165.905,104.276 166.447 M98.355 167.434 C 98.742 167.977,99.132 168.421,99.222 168.421 C 99.313 168.421,99.071 167.977,98.684 167.434 C 98.298 166.891,97.908 166.447,97.817 166.447 C 97.727 166.447,97.969 166.891,98.355 167.434 M153.618 167.520 C 153.618 167.597,154.396 168.308,155.345 169.101 C 156.295 169.893,156.865 170.280,156.611 169.962 C 156.100 169.322,153.618 167.296,153.618 167.520 M106.578 169.655 C 107.008 170.243,107.412 170.724,107.475 170.724 C 107.725 170.724,106.909 169.490,106.370 169.052 C 106.014 168.763,106.094 168.993,106.578 169.655 M131.414 170.104 C 129.403 171.731,128.768 172.386,130.099 171.459 C 131.307 170.618,133.450 168.777,133.224 168.775 C 133.133 168.774,132.319 169.372,131.414 170.104 M82.895 173.026 C 82.508 173.569,82.266 174.013,82.357 174.013 C 82.447 174.013,82.837 173.569,83.224 173.026 C 83.610 172.484,83.852 172.039,83.762 172.039 C 83.671 172.039,83.281 172.484,82.895 173.026 M109.211 173.355 C 109.597 173.898,109.987 174.342,110.078 174.342 C 110.168 174.342,109.926 173.898,109.539 173.355 C 109.153 172.813,108.763 172.368,108.672 172.368 C 108.582 172.368,108.824 172.813,109.211 173.355 M198.942 172.940 C 199.898 173.007,201.378 173.006,202.231 172.939 C 203.085 172.871,202.303 172.817,200.493 172.818 C 198.684 172.818,197.986 172.874,198.942 172.940 M81.250 175.329 C 80.864 175.872,80.621 176.316,80.712 176.316 C 80.802 176.316,81.192 175.872,81.579 175.329 C 81.965 174.786,82.208 174.342,82.117 174.342 C 82.027 174.342,81.636 174.786,81.250 175.329 M162.171 174.439 C 162.171 174.523,162.867 175.162,163.718 175.860 C 164.569 176.557,165.159 176.956,165.029 176.746 C 164.753 176.298,162.171 174.215,162.171 174.439 M369.736 178.701 C 369.252 179.362,369.172 179.592,369.527 179.303 C 370.067 178.865,370.882 177.632,370.633 177.632 C 370.570 177.632,370.166 178.113,369.736 178.701 M179.588 181.168 L 178.454 182.401 179.688 181.268 C 180.836 180.213,181.072 179.934,180.821 179.934 C 180.766 179.934,180.211 180.489,179.588 181.168 M367.257 181.661 L 365.625 183.388 367.352 181.756 C 368.302 180.858,369.079 180.081,369.079 180.029 C 369.079 179.783,368.774 180.056,367.257 181.661 M284.046 181.755 C 283.223 182.151,283.196 182.197,283.882 182.029 C 284.814 181.802,285.861 181.267,285.362 181.275 C 285.181 181.277,284.589 181.494,284.046 181.755 M297.862 182.742 C 297.039 183.138,297.012 183.184,297.697 183.016 C 298.629 182.788,299.677 182.254,299.178 182.262 C 298.997 182.264,298.405 182.480,297.862 182.742 M324.753 182.756 C 325.591 183.751,325.578 183.775,322.615 186.835 L 319.901 189.638 322.780 186.849 C 325.915 183.811,326.011 183.625,324.918 182.699 C 324.178 182.073,324.178 182.073,324.753 182.756 M177.117 183.635 L 176.151 184.704 177.220 183.738 C 177.808 183.206,178.289 182.725,178.289 182.669 C 178.289 182.415,178.018 182.638,177.117 183.635 M280.099 183.071 C 279.276 183.467,279.249 183.513,279.934 183.345 C 280.866 183.117,281.914 182.583,281.414 182.591 C 281.234 182.593,280.641 182.809,280.099 183.071 M174.414 184.386 C 174.906 184.903,175.368 185.261,175.440 185.180 C 175.512 185.099,175.110 184.676,174.545 184.239 L 173.520 183.445 174.414 184.386 M79.934 186.513 C 79.548 187.056,79.306 187.500,79.396 187.500 C 79.486 187.500,79.877 187.056,80.263 186.513 C 80.650 185.970,80.892 185.526,80.801 185.526 C 80.711 185.526,80.321 185.970,79.934 186.513 M110.813 186.431 C 110.403 186.954,110.415 186.965,110.944 186.550 C 111.448 186.154,111.623 186.176,112.259 186.714 L 112.993 187.336 112.367 186.595 C 111.612 185.704,111.401 185.682,110.813 186.431 M328.113 188.898 L 326.480 190.625 328.207 188.993 C 329.812 187.476,330.085 187.171,329.840 187.171 C 329.788 187.171,329.010 187.948,328.113 188.898 M77.961 189.309 C 77.400 190.123,77.016 190.789,77.107 190.789 C 77.197 190.789,77.729 190.123,78.289 189.309 C 78.850 188.495,79.234 187.829,79.143 187.829 C 79.053 187.829,78.521 188.495,77.961 189.309 M338.322 190.116 C 338.954 190.402,340.716 190.589,340.433 190.340 C 340.358 190.273,339.704 190.129,338.980 190.019 C 338.063 189.879,337.864 189.908,338.322 190.116 M341.201 190.687 C 341.517 190.770,342.035 190.770,342.352 190.687 C 342.669 190.605,342.410 190.537,341.776 190.537 C 341.143 190.537,340.884 190.605,341.201 190.687 M92.298 193.928 C 91.047 194.916,90.125 195.724,90.249 195.724 C 90.510 195.724,94.737 192.442,94.737 192.240 C 94.737 192.013,94.641 192.079,92.298 193.928 M313.810 195.970 L 310.033 199.836 313.898 196.058 C 316.024 193.980,317.763 192.241,317.763 192.193 C 317.763 191.956,317.319 192.380,313.810 195.970 M320.062 197.286 L 315.296 202.138 320.148 197.373 C 324.655 192.946,325.149 192.434,324.914 192.434 C 324.866 192.434,322.683 194.618,320.062 197.286 M67.763 194.408 C 67.377 194.951,67.134 195.395,67.225 195.395 C 67.315 195.395,67.706 194.951,68.092 194.408 C 68.479 193.865,68.721 193.421,68.630 193.421 C 68.540 193.421,68.150 193.865,67.763 194.408 M50.579 195.956 C 50.989 196.035,51.581 196.032,51.895 195.950 C 52.210 195.867,51.875 195.803,51.151 195.807 C 50.428 195.810,50.170 195.878,50.579 195.956 M56.172 195.956 C 56.581 196.035,57.173 196.032,57.487 195.950 C 57.802 195.867,57.467 195.803,56.743 195.807 C 56.020 195.810,55.762 195.878,56.172 195.956 M88.474 197.063 L 87.336 198.074 88.569 197.189 C 89.659 196.406,90.014 196.053,89.708 196.053 C 89.656 196.053,89.101 196.507,88.474 197.063 M61.842 196.711 C 62.967 197.071,63.832 197.071,62.993 196.711 C 62.632 196.555,62.039 196.432,61.678 196.437 C 61.149 196.445,61.181 196.499,61.842 196.711 M170.230 197.697 C 170.104 198.445,170.069 199.126,170.154 199.211 C 170.238 199.295,170.406 198.747,170.526 197.993 C 170.647 197.240,170.681 196.558,170.603 196.480 C 170.524 196.401,170.357 196.949,170.230 197.697 M161.020 201.974 C 160.605 202.152,160.544 202.256,160.855 202.256 C 161.127 202.256,161.645 202.129,162.007 201.974 C 162.421 201.795,162.482 201.691,162.171 201.691 C 161.900 201.691,161.382 201.818,161.020 201.974 M74.986 203.701 C 75.793 204.560,76.496 205.263,76.549 205.263 C 76.796 205.263,76.535 204.968,75.082 203.605 L 73.520 202.138 74.986 203.701 M130.592 203.289 C 130.979 203.832,131.369 204.276,131.459 204.276 C 131.550 204.276,131.308 203.832,130.921 203.289 C 130.535 202.747,130.144 202.303,130.054 202.303 C 129.963 202.303,130.206 202.747,130.592 203.289 M303.777 206.332 L 300.164 210.033 303.865 206.420 C 307.302 203.064,307.715 202.632,307.478 202.632 C 307.430 202.632,305.764 204.297,303.777 206.332 M155.099 203.289 C 154.260 203.650,155.125 203.650,156.250 203.289 C 156.911 203.078,156.943 203.024,156.414 203.016 C 156.053 203.011,155.461 203.134,155.099 203.289 M230.718 206.395 C 230.618 206.656,230.594 207.137,230.665 207.464 C 230.746 207.836,230.858 207.658,230.965 206.990 C 231.144 205.870,231.028 205.589,230.718 206.395 M164.803 206.579 C 164.142 206.791,164.109 206.844,164.638 206.852 C 165.000 206.857,165.592 206.734,165.954 206.579 C 166.792 206.219,165.927 206.219,164.803 206.579 M307.888 209.786 L 304.770 212.993 307.977 209.875 C 310.956 206.978,311.334 206.579,311.095 206.579 C 311.047 206.579,309.603 208.022,307.888 209.786 M127.303 207.895 C 127.689 208.438,128.079 208.882,128.170 208.882 C 128.260 208.882,128.018 208.438,127.632 207.895 C 127.245 207.352,126.855 206.908,126.764 206.908 C 126.674 206.908,126.916 207.352,127.303 207.895 M81.581 209.194 C 80.949 209.718,80.505 210.203,80.594 210.273 C 80.684 210.342,81.275 209.911,81.908 209.314 C 83.327 207.977,83.134 207.906,81.581 209.194 M153.454 209.211 C 153.039 209.389,152.978 209.493,153.289 209.493 C 153.561 209.493,154.079 209.366,154.441 209.211 C 154.855 209.032,154.916 208.928,154.605 208.928 C 154.334 208.928,153.816 209.055,153.454 209.211 M142.105 211.842 C 141.454 212.051,141.420 212.105,141.941 212.105 C 142.303 212.105,142.969 211.987,143.421 211.842 C 144.072 211.634,144.106 211.579,143.586 211.579 C 143.224 211.579,142.558 211.697,142.105 211.842 M229.464 212.688 C 229.343 213.170,229.308 213.628,229.385 213.705 C 229.463 213.783,229.625 213.452,229.746 212.970 C 229.867 212.488,229.903 212.030,229.825 211.952 C 229.748 211.875,229.585 212.206,229.464 212.688 M138.161 212.820 C 137.743 213.084,137.738 213.194,138.127 213.555 C 138.417 213.826,138.503 213.838,138.364 213.589 C 138.243 213.374,138.406 213.046,138.727 212.859 C 139.047 212.673,139.161 212.518,138.980 212.515 C 138.799 212.512,138.431 212.650,138.161 212.820 M292.757 217.681 L 289.309 221.217 292.845 217.769 C 294.790 215.873,296.382 214.281,296.382 214.233 C 296.382 213.995,295.960 214.396,292.757 217.681 M100.987 215.789 C 100.326 216.001,100.293 216.055,100.822 216.063 C 101.184 216.068,101.776 215.945,102.138 215.789 C 102.976 215.429,102.112 215.429,100.987 215.789 M297.693 220.313 L 293.257 224.836 297.780 220.399 C 301.981 216.278,302.452 215.789,302.216 215.789 C 302.168 215.789,300.133 217.825,297.693 220.313 M120.724 216.776 C 120.063 216.988,120.030 217.042,120.559 217.049 C 120.921 217.055,121.513 216.932,121.875 216.776 C 122.713 216.416,121.848 216.416,120.724 216.776 M140.789 217.434 C 141.176 217.977,141.566 218.421,141.657 218.421 C 141.747 218.421,141.505 217.977,141.118 217.434 C 140.732 216.891,140.342 216.447,140.251 216.447 C 140.161 216.447,140.403 216.891,140.789 217.434 M134.868 218.421 C 135.255 218.964,135.645 219.408,135.736 219.408 C 135.826 219.408,135.584 218.964,135.197 218.421 C 134.811 217.878,134.421 217.434,134.330 217.434 C 134.240 217.434,134.482 217.878,134.868 218.421 M137.142 221.655 C 137.319 221.987,137.722 222.468,138.038 222.724 C 138.394 223.013,138.314 222.783,137.830 222.122 C 136.966 220.942,136.642 220.722,137.142 221.655 M223.667 223.273 L 222.533 224.507 223.766 223.373 C 224.915 222.318,225.151 222.039,224.900 222.039 C 224.845 222.039,224.290 222.595,223.667 223.273 M93.750 223.026 C 93.089 223.238,93.057 223.292,93.586 223.299 C 93.947 223.305,94.539 223.182,94.901 223.026 C 95.740 222.666,94.875 222.666,93.750 223.026 M145.724 224.342 C 146.110 224.885,146.500 225.329,146.591 225.329 C 146.681 225.329,146.439 224.885,146.053 224.342 C 145.666 223.799,145.276 223.355,145.185 223.355 C 145.095 223.355,145.337 223.799,145.724 224.342 M178.947 225.493 C 179.930 226.488,180.808 227.303,180.899 227.303 C 180.989 227.303,180.259 226.488,179.276 225.493 C 178.294 224.498,177.416 223.684,177.325 223.684 C 177.235 223.684,177.965 224.498,178.947 225.493 M280.917 229.852 L 275.822 235.033 281.003 229.938 C 285.816 225.205,286.333 224.671,286.098 224.671 C 286.051 224.671,283.719 227.002,280.917 229.852 M85.003 225.453 C 84.907 225.702,84.878 226.627,84.937 227.509 L 85.045 229.112 85.204 227.055 C 85.363 224.978,85.320 224.628,85.003 225.453 M288.154 230.181 L 283.388 235.033 288.240 230.267 C 292.747 225.840,293.241 225.329,293.006 225.329 C 292.958 225.329,290.775 227.512,288.154 230.181 M212.171 231.743 C 211.719 232.002,211.497 232.214,211.678 232.214 C 211.859 232.214,212.377 232.002,212.829 231.743 C 213.281 231.485,213.503 231.273,213.322 231.273 C 213.141 231.273,212.623 231.485,212.171 231.743 M83.941 234.270 C 83.746 235.040,83.643 235.726,83.712 235.796 C 83.782 235.865,84.006 235.300,84.211 234.539 C 84.415 233.779,84.518 233.093,84.440 233.014 C 84.361 232.935,84.137 233.501,83.941 234.270 M207.566 233.224 C 206.905 233.435,206.872 233.489,207.401 233.497 C 207.763 233.502,208.355 233.379,208.717 233.224 C 209.555 232.863,208.691 232.863,207.566 233.224 M153.289 234.868 C 153.676 235.411,154.066 235.855,154.157 235.855 C 154.247 235.855,154.005 235.411,153.618 234.868 C 153.232 234.326,152.842 233.882,152.751 233.882 C 152.661 233.882,152.903 234.326,153.289 234.868 M199.918 234.120 C 200.506 234.193,201.468 234.193,202.056 234.120 C 202.644 234.047,202.163 233.987,200.987 233.987 C 199.811 233.987,199.330 234.047,199.918 234.120 M147.368 235.855 C 147.755 236.398,148.145 236.842,148.236 236.842 C 148.326 236.842,148.084 236.398,147.697 235.855 C 147.311 235.313,146.921 234.868,146.830 234.868 C 146.740 234.868,146.982 235.313,147.368 235.855 M271.377 239.720 L 266.941 244.243 271.464 239.807 C 275.665 235.686,276.136 235.197,275.900 235.197 C 275.852 235.197,273.817 237.233,271.377 239.720 M279.588 239.063 L 278.454 240.296 279.688 239.162 C 280.366 238.539,280.921 237.984,280.921 237.929 C 280.921 237.678,280.643 237.914,279.588 239.063 M274.994 243.601 C 273.278 245.329,272.097 246.639,272.368 246.512 C 272.871 246.278,278.537 240.461,278.263 240.461 C 278.180 240.461,276.709 241.874,274.994 243.601 M75.977 247.944 L 73.849 250.164 76.069 248.036 C 78.131 246.059,78.440 245.724,78.198 245.724 C 78.147 245.724,77.148 246.723,75.977 247.944 M261.508 249.918 L 257.401 254.112 261.595 250.005 C 265.491 246.190,265.939 245.724,265.702 245.724 C 265.654 245.724,263.767 247.611,261.508 249.918 M158.882 251.974 C 159.268 252.516,159.658 252.961,159.749 252.961 C 159.839 252.961,159.597 252.516,159.211 251.974 C 158.824 251.431,158.434 250.987,158.343 250.987 C 158.253 250.987,158.495 251.431,158.882 251.974 M264.796 254.194 L 261.678 257.401 264.885 254.283 C 266.649 252.568,268.092 251.124,268.092 251.076 C 268.092 250.837,267.693 251.215,264.796 254.194 M104.934 256.086 C 105.387 256.344,105.905 256.556,106.086 256.556 C 106.266 256.556,106.044 256.344,105.592 256.086 C 105.140 255.827,104.622 255.615,104.441 255.615 C 104.260 255.615,104.482 255.827,104.934 256.086 M120.066 256.414 C 120.518 256.673,121.036 256.885,121.217 256.885 C 121.398 256.885,121.176 256.673,120.724 256.414 C 120.271 256.156,119.753 255.944,119.572 255.944 C 119.391 255.944,119.613 256.156,120.066 256.414 M251.639 260.115 L 247.862 263.980 251.727 260.203 C 253.853 258.125,255.592 256.386,255.592 256.338 C 255.592 256.101,255.148 256.525,251.639 260.115 M51.398 256.806 C 51.715 256.888,52.233 256.888,52.549 256.806 C 52.866 256.723,52.607 256.655,51.974 256.655 C 51.340 256.655,51.081 256.723,51.398 256.806 M55.843 256.812 C 56.252 256.890,56.844 256.887,57.158 256.805 C 57.473 256.723,57.138 256.658,56.414 256.662 C 55.691 256.666,55.433 256.733,55.843 256.812 M110.526 258.388 C 110.979 258.647,111.497 258.858,111.678 258.858 C 111.859 258.858,111.637 258.647,111.184 258.388 C 110.732 258.130,110.214 257.918,110.033 257.918 C 109.852 257.918,110.074 258.130,110.526 258.388 M198.447 259.124 C 199.312 259.192,200.644 259.191,201.408 259.122 C 202.171 259.053,201.464 258.997,199.836 258.998 C 198.207 258.999,197.583 259.056,198.447 259.124 M190.954 260.197 C 190.539 260.376,190.478 260.480,190.789 260.480 C 191.061 260.480,191.579 260.353,191.941 260.197 C 192.355 260.019,192.416 259.915,192.105 259.915 C 191.834 259.915,191.316 260.042,190.954 260.197 M165.461 261.184 C 165.847 261.727,166.237 262.171,166.328 262.171 C 166.418 262.171,166.176 261.727,165.789 261.184 C 165.403 260.641,165.013 260.197,164.922 260.197 C 164.832 260.197,165.074 260.641,165.461 261.184 M254.271 265.049 L 250.493 268.914 254.359 265.137 C 257.949 261.628,258.373 261.184,258.136 261.184 C 258.088 261.184,256.349 262.924,254.271 265.049 M167.105 263.487 C 167.492 264.030,167.882 264.474,167.972 264.474 C 168.063 264.474,167.821 264.030,167.434 263.487 C 167.048 262.944,166.658 262.500,166.567 262.500 C 166.477 262.500,166.719 262.944,167.105 263.487 M183.465 263.663 C 182.789 264.122,182.237 264.568,182.237 264.655 C 182.237 264.741,182.829 264.420,183.553 263.941 C 184.702 263.181,185.090 262.829,184.780 262.829 C 184.732 262.829,184.140 263.204,183.465 263.663 M128.947 265.954 C 129.400 266.213,129.918 266.424,130.099 266.424 C 130.280 266.424,130.058 266.213,129.605 265.954 C 129.153 265.695,128.635 265.484,128.454 265.484 C 128.273 265.484,128.495 265.695,128.947 265.954 M179.096 267.188 L 177.796 268.586 179.194 267.285 C 180.494 266.076,180.743 265.789,180.494 265.789 C 180.441 265.789,179.812 266.419,179.096 267.188 M221.546 268.092 C 222.803 269.359,223.905 270.395,223.996 270.395 C 224.086 270.395,223.132 269.359,221.875 268.092 C 220.618 266.826,219.516 265.789,219.426 265.789 C 219.335 265.789,220.289 266.826,221.546 268.092 M241.604 270.477 L 238.980 273.191 241.694 270.567 C 244.215 268.130,244.558 267.763,244.318 267.763 C 244.268 267.763,243.047 268.984,241.604 270.477 M244.568 275.082 L 240.296 279.441 244.655 275.169 C 248.703 271.201,249.162 270.724,248.926 270.724 C 248.878 270.724,246.917 272.685,244.568 275.082 M156.908 271.546 C 157.360 271.805,157.878 272.016,158.059 272.016 C 158.240 272.016,158.018 271.805,157.566 271.546 C 157.113 271.287,156.595 271.076,156.414 271.076 C 156.234 271.076,156.456 271.287,156.908 271.546 M231.357 280.928 C 230.420 281.829,229.760 282.566,229.889 282.566 C 230.018 282.566,230.852 281.826,231.743 280.921 C 233.835 278.797,233.567 278.802,231.357 280.928 M234.205 285.773 L 230.757 289.309 234.293 285.861 C 236.238 283.965,237.829 282.373,237.829 282.325 C 237.829 282.087,237.407 282.489,234.205 285.773 M230.339 292.105 C 230.339 292.738,230.407 292.998,230.490 292.681 C 230.573 292.364,230.573 291.846,230.490 291.530 C 230.407 291.213,230.339 291.472,230.339 292.105 M177.796 310.855 C 178.687 311.760,179.490 312.500,179.581 312.500 C 179.671 312.500,179.016 311.760,178.125 310.855 C 177.234 309.951,176.431 309.211,176.341 309.211 C 176.250 309.211,176.905 309.951,177.796 310.855 M221.372 311.431 L 219.243 313.651 221.464 311.523 C 222.685 310.352,223.684 309.353,223.684 309.302 C 223.684 309.060,223.349 309.369,221.372 311.431 M181.300 313.884 C 181.961 314.480,182.997 315.233,183.603 315.557 C 184.662 316.124,184.673 316.124,183.890 315.557 C 183.442 315.233,182.406 314.480,181.587 313.884 L 180.099 312.801 181.300 313.884 M216.283 315.461 C 215.740 315.820,215.444 316.112,215.625 316.109 C 215.955 316.104,217.743 314.822,217.434 314.812 C 217.344 314.809,216.826 315.101,216.283 315.461 M213.816 316.776 C 213.183 317.123,212.783 317.413,212.928 317.420 C 213.276 317.439,215.132 316.474,215.132 316.274 C 215.132 316.059,215.112 316.066,213.816 316.776 M192.270 319.408 C 192.632 319.563,193.150 319.691,193.421 319.691 C 193.732 319.691,193.671 319.586,193.257 319.408 C 192.895 319.252,192.377 319.125,192.105 319.125 C 191.794 319.125,191.855 319.230,192.270 319.408 " stroke="none" fill="#989898" fill-rule="evenodd"></path><path id="path3" d="M237.829 46.875 C 238.443 47.508,239.019 48.026,239.109 48.026 C 239.200 48.026,238.772 47.508,238.158 46.875 C 237.544 46.242,236.968 45.724,236.878 45.724 C 236.787 45.724,237.215 46.242,237.829 46.875 M250.329 52.467 C 250.943 53.100,251.519 53.618,251.609 53.618 C 251.700 53.618,251.272 53.100,250.658 52.467 C 250.044 51.834,249.468 51.316,249.378 51.316 C 249.287 51.316,249.715 51.834,250.329 52.467 M254.276 63.980 C 254.890 64.613,255.466 65.132,255.557 65.132 C 255.647 65.132,255.219 64.613,254.605 63.980 C 253.992 63.347,253.415 62.829,253.325 62.829 C 253.234 62.829,253.663 63.347,254.276 63.980 M266.941 69.737 C 267.647 70.461,268.300 71.053,268.390 71.053 C 268.481 71.053,267.976 70.461,267.270 69.737 C 266.563 69.013,265.911 68.421,265.820 68.421 C 265.730 68.421,266.234 69.013,266.941 69.737 M262.829 72.862 C 263.443 73.495,264.019 74.013,264.109 74.013 C 264.200 74.013,263.772 73.495,263.158 72.862 C 262.544 72.229,261.968 71.711,261.878 71.711 C 261.787 71.711,262.215 72.229,262.829 72.862 M270.888 81.250 C 271.595 81.974,272.247 82.566,272.337 82.566 C 272.428 82.566,271.924 81.974,271.217 81.250 C 270.510 80.526,269.858 79.934,269.768 79.934 C 269.677 79.934,270.181 80.526,270.888 81.250 M283.388 86.842 C 284.095 87.566,284.747 88.158,284.837 88.158 C 284.928 88.158,284.424 87.566,283.717 86.842 C 283.010 86.118,282.358 85.526,282.268 85.526 C 282.177 85.526,282.681 86.118,283.388 86.842 M300.000 104.112 C 300.614 104.745,301.190 105.263,301.280 105.263 C 301.371 105.263,300.943 104.745,300.329 104.112 C 299.715 103.479,299.139 102.961,299.049 102.961 C 298.958 102.961,299.386 103.479,300.000 104.112 M295.395 106.682 C 295.395 106.738,295.876 107.220,296.464 107.751 L 297.533 108.717 296.567 107.648 C 295.666 106.651,295.395 106.428,295.395 106.682 M315.461 120.169 C 315.461 120.225,315.942 120.706,316.530 121.238 L 317.599 122.204 316.633 121.135 C 315.732 120.138,315.461 119.915,315.461 120.169 M324.836 129.934 C 325.542 130.658,326.194 131.250,326.285 131.250 C 326.375 131.250,325.871 130.658,325.164 129.934 C 324.458 129.211,323.806 128.618,323.715 128.618 C 323.625 128.618,324.129 129.211,324.836 129.934 M320.066 132.401 C 320.680 133.035,321.256 133.553,321.346 133.553 C 321.437 133.553,321.008 133.035,320.395 132.401 C 319.781 131.768,319.205 131.250,319.114 131.250 C 319.024 131.250,319.452 131.768,320.066 132.401 M318.565 191.201 L 317.599 192.270 318.668 191.304 C 319.256 190.772,319.737 190.291,319.737 190.235 C 319.737 189.980,319.465 190.204,318.565 191.201 M53.043 195.959 C 53.540 196.035,54.354 196.035,54.852 195.959 C 55.350 195.884,54.942 195.822,53.947 195.822 C 52.952 195.822,52.545 195.884,53.043 195.959 M308.535 201.563 L 307.401 202.796 308.635 201.662 C 309.783 200.607,310.020 200.329,309.768 200.329 C 309.714 200.329,309.158 200.884,308.535 201.563 M313.476 203.865 L 311.678 205.757 313.569 203.959 C 315.326 202.288,315.611 201.974,315.367 201.974 C 315.316 201.974,314.464 202.825,313.476 203.865 M32.715 205.016 L 31.414 206.414 32.813 205.114 C 33.581 204.399,34.211 203.770,34.211 203.716 C 34.211 203.467,33.924 203.716,32.715 205.016 M288.487 222.204 C 287.688 223.018,287.108 223.684,287.199 223.684 C 287.289 223.684,288.017 223.018,288.816 222.204 C 289.615 221.390,290.195 220.724,290.104 220.724 C 290.014 220.724,289.286 221.390,288.487 222.204 M221.525 225.411 L 220.559 226.480 221.628 225.514 C 222.216 224.983,222.697 224.502,222.697 224.445 C 222.697 224.191,222.426 224.415,221.525 225.411 M292.088 225.905 L 290.954 227.138 292.188 226.005 C 293.336 224.949,293.572 224.671,293.321 224.671 C 293.266 224.671,292.711 225.226,292.088 225.905 M277.303 233.717 C 276.504 234.531,275.924 235.197,276.014 235.197 C 276.105 235.197,276.833 234.531,277.632 233.717 C 278.431 232.903,279.010 232.237,278.920 232.237 C 278.829 232.237,278.102 232.903,277.303 233.717 M281.723 236.595 L 280.757 237.664 281.826 236.698 C 282.414 236.167,282.895 235.686,282.895 235.629 C 282.895 235.375,282.623 235.599,281.723 236.595 M270.218 248.438 L 268.586 250.164 270.313 248.532 C 271.917 247.015,272.190 246.711,271.945 246.711 C 271.893 246.711,271.116 247.488,270.218 248.438 M256.561 255.181 L 255.428 256.414 256.661 255.281 C 257.809 254.226,258.046 253.947,257.795 253.947 C 257.740 253.947,257.185 254.502,256.561 255.181 M53.540 256.812 C 53.949 256.890,54.541 256.887,54.856 256.805 C 55.170 256.723,54.836 256.658,54.112 256.662 C 53.388 256.666,53.131 256.733,53.540 256.812 M259.193 259.786 L 258.059 261.020 259.293 259.886 C 260.441 258.831,260.678 258.553,260.426 258.553 C 260.371 258.553,259.816 259.108,259.193 259.786 M246.860 265.214 L 245.559 266.612 246.957 265.312 C 248.257 264.102,248.506 263.816,248.258 263.816 C 248.204 263.816,247.575 264.445,246.860 265.214 M235.188 277.220 L 233.059 279.441 235.280 277.312 C 237.342 275.335,237.650 275.000,237.408 275.000 C 237.358 275.000,236.359 275.999,235.188 277.220 " stroke="none" fill="#747474" fill-rule="evenodd"></path><path id="path4" d="M219.408 6.682 C 219.408 6.738,219.889 7.220,220.477 7.751 L 221.546 8.717 220.580 7.648 C 219.679 6.651,219.408 6.428,219.408 6.682 M170.186 30.428 C 170.187 32.237,170.242 32.935,170.309 31.979 C 170.375 31.023,170.375 29.543,170.307 28.690 C 170.240 27.836,170.185 28.618,170.186 30.428 M230.694 30.099 C 230.696 31.184,230.757 31.589,230.831 30.997 C 230.904 30.406,230.902 29.518,230.827 29.024 C 230.752 28.529,230.692 29.013,230.694 30.099 M237.993 39.803 C 239.432 41.250,240.684 42.434,240.774 42.434 C 240.864 42.434,239.761 41.250,238.322 39.803 C 236.883 38.355,235.632 37.171,235.542 37.171 C 235.451 37.171,236.555 38.355,237.993 39.803 M246.053 48.191 C 247.764 49.910,249.239 51.316,249.329 51.316 C 249.420 51.316,248.093 49.910,246.382 48.191 C 244.670 46.472,243.196 45.066,243.105 45.066 C 243.015 45.066,244.341 46.472,246.053 48.191 M239.145 48.117 C 239.145 48.167,240.292 49.314,241.694 50.666 L 244.243 53.125 241.785 50.576 C 239.501 48.208,239.145 47.876,239.145 48.117 M221.693 52.220 L 220.559 53.454 221.793 52.320 C 222.941 51.265,223.178 50.987,222.926 50.987 C 222.871 50.987,222.316 51.542,221.693 52.220 M251.974 54.367 C 251.974 54.417,253.121 55.564,254.523 56.916 L 257.072 59.375 254.613 56.826 C 252.330 54.458,251.974 54.126,251.974 54.367 M248.026 57.327 C 248.026 57.377,249.174 58.524,250.576 59.877 L 253.125 62.336 250.666 59.786 C 248.382 57.418,248.026 57.087,248.026 57.327 M53.536 62.743 C 54.486 62.809,56.040 62.809,56.990 62.743 C 57.940 62.676,57.163 62.622,55.263 62.622 C 53.363 62.622,52.586 62.676,53.536 62.743 M262.829 65.625 C 263.994 66.801,265.022 67.763,265.113 67.763 C 265.203 67.763,264.323 66.801,263.158 65.625 C 261.992 64.449,260.965 63.487,260.874 63.487 C 260.784 63.487,261.663 64.449,262.829 65.625 M258.553 68.257 C 260.264 69.975,261.739 71.382,261.829 71.382 C 261.920 71.382,260.593 69.975,258.882 68.257 C 257.170 66.538,255.696 65.132,255.605 65.132 C 255.515 65.132,256.841 66.538,258.553 68.257 M33.047 71.793 L 31.414 73.520 33.141 71.887 C 34.746 70.371,35.019 70.066,34.774 70.066 C 34.722 70.066,33.945 70.843,33.047 71.793 M270.888 74.013 C 272.327 75.461,273.578 76.645,273.669 76.645 C 273.759 76.645,272.656 75.461,271.217 74.013 C 269.778 72.566,268.527 71.382,268.436 71.382 C 268.346 71.382,269.449 72.566,270.888 74.013 M266.612 76.645 C 268.051 78.092,269.302 79.276,269.392 79.276 C 269.483 79.276,268.380 78.092,266.941 76.645 C 265.502 75.197,264.251 74.013,264.160 74.013 C 264.070 74.013,265.173 75.197,266.612 76.645 M279.276 82.730 C 280.806 84.268,282.132 85.526,282.222 85.526 C 282.313 85.526,281.135 84.268,279.605 82.730 C 278.075 81.192,276.750 79.934,276.659 79.934 C 276.569 79.934,277.746 81.192,279.276 82.730 M275.164 85.526 C 276.785 87.155,278.185 88.487,278.276 88.487 C 278.366 88.487,277.114 87.155,275.493 85.526 C 273.873 83.898,272.473 82.566,272.382 82.566 C 272.292 82.566,273.544 83.898,275.164 85.526 M198.442 87.078 C 198.942 87.154,199.682 87.152,200.087 87.074 C 200.491 86.996,200.082 86.934,199.178 86.936 C 198.273 86.939,197.942 87.003,198.442 87.078 M24.747 90.132 C 24.747 90.765,24.815 91.024,24.898 90.707 C 24.981 90.391,24.981 89.873,24.898 89.556 C 24.815 89.239,24.747 89.498,24.747 90.132 M288.322 92.105 C 289.579 93.372,290.681 94.408,290.772 94.408 C 290.862 94.408,289.908 93.372,288.651 92.105 C 287.395 90.839,286.292 89.803,286.202 89.803 C 286.111 89.803,287.066 90.839,288.322 92.105 M85.247 92.286 C 85.198 93.275,85.676 94.079,86.313 94.079 C 86.492 94.079,86.398 93.894,86.103 93.668 C 85.808 93.442,85.506 92.813,85.432 92.270 L 85.296 91.283 85.247 92.286 M283.717 94.408 C 285.338 96.036,286.738 97.368,286.828 97.368 C 286.919 97.368,285.667 96.036,284.046 94.408 C 282.425 92.780,281.025 91.447,280.935 91.447 C 280.844 91.447,282.096 92.780,283.717 94.408 M24.754 95.230 C 24.758 95.954,24.825 96.211,24.904 95.802 C 24.982 95.393,24.979 94.801,24.897 94.486 C 24.815 94.172,24.750 94.507,24.754 95.230 M177.455 96.135 L 175.822 97.862 177.549 96.229 C 179.154 94.713,179.427 94.408,179.182 94.408 C 179.130 94.408,178.353 95.185,177.455 96.135 M220.724 96.217 C 221.706 97.212,222.584 98.026,222.675 98.026 C 222.765 98.026,222.035 97.212,221.053 96.217 C 220.070 95.222,219.192 94.408,219.101 94.408 C 219.011 94.408,219.741 95.222,220.724 96.217 M296.875 100.987 C 297.949 102.072,298.902 102.961,298.993 102.961 C 299.083 102.961,298.278 102.072,297.204 100.987 C 296.130 99.901,295.177 99.013,295.086 99.013 C 294.996 99.013,295.801 99.901,296.875 100.987 M292.105 103.125 C 293.635 104.663,294.961 105.921,295.051 105.921 C 295.142 105.921,293.964 104.663,292.434 103.125 C 290.904 101.587,289.579 100.329,289.488 100.329 C 289.398 100.329,290.575 101.587,292.105 103.125 M132.253 103.763 C 132.037 104.024,131.464 104.298,130.979 104.372 L 130.099 104.507 130.952 104.556 C 131.439 104.584,132.062 104.322,132.401 103.947 C 132.729 103.586,132.918 103.289,132.822 103.289 C 132.725 103.289,132.469 103.503,132.253 103.763 M302.632 106.998 C 302.632 107.048,303.779 108.195,305.181 109.548 L 307.730 112.007 305.271 109.457 C 302.988 107.089,302.632 106.758,302.632 106.998 M297.368 108.643 C 297.368 108.693,298.516 109.840,299.918 111.192 L 302.467 113.651 300.008 111.102 C 297.724 108.734,297.368 108.403,297.368 108.643 M33.059 114.145 C 33.766 114.868,34.418 115.461,34.509 115.461 C 34.599 115.461,34.095 114.868,33.388 114.145 C 32.681 113.421,32.029 112.829,31.939 112.829 C 31.848 112.829,32.353 113.421,33.059 114.145 M75.810 114.885 L 74.178 116.612 75.879 115.004 C 77.027 113.920,77.755 113.464,78.117 113.603 C 78.429 113.723,78.569 113.673,78.452 113.483 C 78.057 112.844,77.419 113.183,75.810 114.885 M312.664 117.434 C 314.103 118.882,315.355 120.066,315.445 120.066 C 315.536 120.066,314.432 118.882,312.993 117.434 C 311.555 115.987,310.303 114.803,310.213 114.803 C 310.122 114.803,311.226 115.987,312.664 117.434 M304.934 116.538 C 304.934 116.588,306.081 117.735,307.484 119.087 L 310.033 121.546 307.574 118.997 C 305.290 116.629,304.934 116.297,304.934 116.538 M71.153 118.563 C 70.370 119.241,70.300 119.428,70.690 119.796 C 71.072 120.157,71.105 120.152,70.883 119.765 C 70.702 119.446,70.920 119.057,71.575 118.533 C 72.102 118.111,72.430 117.766,72.305 117.765 C 72.179 117.764,71.661 118.123,71.153 118.563 M53.382 123.269 C 54.246 123.336,55.579 123.336,56.342 123.267 C 57.106 123.198,56.398 123.142,54.770 123.143 C 53.141 123.144,52.517 123.201,53.382 123.269 M321.217 126.316 C 322.474 127.582,323.576 128.618,323.667 128.618 C 323.757 128.618,322.803 127.582,321.546 126.316 C 320.289 125.049,319.187 124.013,319.097 124.013 C 319.006 124.013,319.960 125.049,321.217 126.316 M316.283 128.289 C 317.722 129.737,318.973 130.921,319.064 130.921 C 319.154 130.921,318.051 129.737,316.612 128.289 C 315.173 126.842,313.922 125.658,313.831 125.658 C 313.741 125.658,314.844 126.842,316.283 128.289 M344.819 129.841 C 345.317 129.916,346.131 129.916,346.628 129.841 C 347.126 129.766,346.719 129.704,345.724 129.704 C 344.729 129.704,344.322 129.766,344.819 129.841 M327.796 133.224 C 328.503 133.947,329.155 134.539,329.245 134.539 C 329.336 134.539,328.832 133.947,328.125 133.224 C 327.418 132.500,326.766 131.908,326.676 131.908 C 326.585 131.908,327.089 132.500,327.796 133.224 M323.026 135.362 C 324.009 136.357,324.887 137.171,324.978 137.171 C 325.068 137.171,324.338 136.357,323.355 135.362 C 322.373 134.367,321.495 133.553,321.404 133.553 C 321.314 133.553,322.044 134.367,323.026 135.362 M177.632 138.980 C 178.614 139.975,179.492 140.789,179.583 140.789 C 179.673 140.789,178.943 139.975,177.961 138.980 C 176.978 137.985,176.100 137.171,176.009 137.171 C 175.919 137.171,176.649 137.985,177.632 138.980 M367.092 138.898 C 368.455 140.350,368.750 140.612,368.750 140.365 C 368.750 140.312,368.047 139.609,367.188 138.802 L 365.625 137.336 367.092 138.898 M323.178 139.556 L 321.546 141.283 323.273 139.651 C 324.878 138.134,325.151 137.829,324.905 137.829 C 324.853 137.829,324.076 138.606,323.178 139.556 M372.392 146.217 C 372.392 146.398,372.603 146.916,372.862 147.368 C 373.120 147.821,373.332 148.043,373.332 147.862 C 373.332 147.681,373.120 147.163,372.862 146.711 C 372.603 146.258,372.392 146.036,372.392 146.217 M198.279 147.936 C 198.870 148.009,199.758 148.007,200.253 147.932 C 200.747 147.857,200.263 147.797,199.178 147.799 C 198.092 147.801,197.688 147.863,198.279 147.936 M145.230 159.075 L 144.243 159.923 145.313 159.215 C 145.900 158.826,146.382 158.444,146.382 158.366 C 146.382 158.120,146.242 158.205,145.230 159.075 M375.752 160.362 C 375.754 161.266,375.818 161.597,375.894 161.097 C 375.970 160.597,375.968 159.857,375.889 159.453 C 375.811 159.048,375.750 159.457,375.752 160.362 M95.353 164.391 C 94.944 164.913,94.955 164.925,95.477 164.516 C 95.965 164.133,96.140 164.133,96.628 164.516 C 97.150 164.925,97.162 164.913,96.752 164.391 C 96.504 164.075,96.189 163.816,96.053 163.816 C 95.916 163.816,95.601 164.075,95.353 164.391 M197.780 173.253 C 198.096 173.336,198.614 173.336,198.931 173.253 C 199.248 173.170,198.988 173.103,198.355 173.103 C 197.722 173.103,197.463 173.170,197.780 173.253 M201.895 173.259 C 202.304 173.338,202.897 173.335,203.211 173.252 C 203.526 173.170,203.191 173.106,202.467 173.109 C 201.743 173.113,201.486 173.180,201.895 173.259 M180.083 181.003 L 178.783 182.401 180.181 181.101 C 181.481 179.892,181.730 179.605,181.481 179.605 C 181.427 179.605,180.798 180.234,180.083 181.003 M366.776 181.743 C 365.977 182.558,365.398 183.224,365.488 183.224 C 365.578 183.224,366.306 182.558,367.105 181.743 C 367.904 180.929,368.484 180.263,368.394 180.263 C 368.303 180.263,367.575 180.929,366.776 181.743 M177.117 183.964 L 176.151 185.033 177.220 184.067 C 177.808 183.535,178.289 183.054,178.289 182.998 C 178.289 182.744,178.018 182.967,177.117 183.964 M322.526 187.253 L 319.572 190.296 322.615 187.342 C 325.441 184.599,325.808 184.211,325.569 184.211 C 325.520 184.211,324.151 185.580,322.526 187.253 M328.113 188.569 L 326.480 190.296 328.207 188.664 C 329.812 187.147,330.085 186.842,329.840 186.842 C 329.788 186.842,329.010 187.619,328.113 188.569 M344.490 190.696 C 344.988 190.772,345.802 190.772,346.299 190.696 C 346.797 190.621,346.390 190.559,345.395 190.559 C 344.400 190.559,343.993 190.621,344.490 190.696 M319.566 197.451 L 316.283 200.822 319.655 197.539 C 321.509 195.733,323.026 194.216,323.026 194.167 C 323.026 193.929,322.616 194.319,319.566 197.451 M311.667 198.438 L 309.704 200.493 311.760 198.530 C 312.891 197.450,313.816 196.525,313.816 196.474 C 313.816 196.231,313.491 196.528,311.667 198.438 M303.119 207.319 L 299.836 210.691 303.207 207.407 C 305.062 205.602,306.579 204.084,306.579 204.036 C 306.579 203.798,306.168 204.187,303.119 207.319 M308.382 208.964 L 305.099 212.336 308.470 209.052 C 310.325 207.246,311.842 205.729,311.842 205.681 C 311.842 205.443,311.432 205.832,308.382 208.964 M133.686 207.813 C 134.031 208.220,134.549 208.541,134.837 208.527 C 135.282 208.505,135.287 208.473,134.868 208.319 C 134.597 208.219,134.079 207.898,133.717 207.605 C 133.065 207.077,133.065 207.079,133.686 207.813 M293.421 217.270 C 292.073 218.627,291.044 219.737,291.135 219.737 C 291.225 219.737,292.402 218.627,293.750 217.270 C 295.098 215.913,296.127 214.803,296.036 214.803 C 295.946 214.803,294.769 215.913,293.421 217.270 M297.527 220.148 L 293.914 223.849 297.615 220.236 C 301.052 216.880,301.465 216.447,301.228 216.447 C 301.180 216.447,299.514 218.113,297.527 220.148 M179.112 225.329 C 180.186 226.414,181.139 227.303,181.229 227.303 C 181.320 227.303,180.515 226.414,179.441 225.329 C 178.367 224.243,177.414 223.355,177.323 223.355 C 177.233 223.355,178.038 224.243,179.112 225.329 M24.112 225.658 C 24.112 226.653,24.173 227.060,24.249 226.563 C 24.324 226.065,24.324 225.251,24.249 224.753 C 24.173 224.256,24.112 224.663,24.112 225.658 M282.231 228.865 L 278.783 232.401 282.319 228.953 C 285.604 225.751,286.005 225.329,285.767 225.329 C 285.719 225.329,284.127 226.920,282.231 228.865 M286.673 231.332 L 282.401 235.691 286.760 231.419 C 289.157 229.070,291.118 227.109,291.118 227.061 C 291.118 226.825,290.641 227.284,286.673 231.332 M197.619 233.785 C 198.028 233.864,198.620 233.861,198.935 233.779 C 199.249 233.696,198.914 233.632,198.191 233.636 C 197.467 233.639,197.210 233.707,197.619 233.785 M203.211 233.785 C 203.620 233.864,204.212 233.861,204.527 233.779 C 204.841 233.696,204.507 233.632,203.783 233.636 C 203.059 233.639,202.802 233.707,203.211 233.785 M270.718 240.707 L 266.941 244.572 270.806 240.795 C 272.932 238.717,274.671 236.978,274.671 236.930 C 274.671 236.693,274.227 237.117,270.718 240.707 M276.474 241.859 L 273.191 245.230 276.563 241.947 C 278.417 240.141,279.934 238.624,279.934 238.575 C 279.934 238.337,279.524 238.727,276.474 241.859 M77.123 246.464 L 75.822 247.862 77.138 246.659 C 77.862 245.998,78.750 245.386,79.112 245.299 C 79.757 245.145,79.756 245.141,79.096 245.104 C 78.695 245.081,77.897 245.631,77.123 246.464 M261.178 250.576 L 257.730 254.112 261.266 250.664 C 263.211 248.767,264.803 247.176,264.803 247.128 C 264.803 246.890,264.381 247.291,261.178 250.576 M265.946 252.714 L 263.322 255.428 266.036 252.804 C 268.557 250.367,268.900 250.000,268.660 250.000 C 268.611 250.000,267.389 251.221,265.946 252.714 M67.105 253.783 C 66.653 254.041,66.431 254.253,66.612 254.253 C 66.793 254.253,67.311 254.041,67.763 253.783 C 68.215 253.524,68.438 253.313,68.257 253.313 C 68.076 253.313,67.558 253.524,67.105 253.783 M251.144 260.938 L 248.191 263.980 251.234 261.027 C 252.907 259.402,254.276 258.033,254.276 257.984 C 254.276 257.745,253.888 258.111,251.144 260.938 M196.793 259.437 C 197.109 259.520,197.627 259.520,197.944 259.437 C 198.261 259.355,198.002 259.287,197.368 259.287 C 196.735 259.287,196.476 259.355,196.793 259.437 M255.092 263.898 L 252.138 266.941 255.181 263.987 C 256.854 262.363,258.224 260.993,258.224 260.944 C 258.224 260.706,257.835 261.072,255.092 263.898 M221.217 268.092 C 222.291 269.178,223.244 270.066,223.335 270.066 C 223.425 270.066,222.620 269.178,221.546 268.092 C 220.472 267.007,219.519 266.118,219.428 266.118 C 219.338 266.118,220.143 267.007,221.217 268.092 M178.930 267.681 L 177.796 268.914 179.030 267.781 C 179.708 267.157,180.263 266.602,180.263 266.547 C 180.263 266.296,179.985 266.533,178.930 267.681 M239.959 272.451 L 237.336 275.164 240.049 272.541 C 242.570 270.104,242.913 269.737,242.673 269.737 C 242.624 269.737,241.403 270.958,239.959 272.451 M244.238 275.082 L 240.625 278.783 244.326 275.170 C 246.361 273.183,248.026 271.518,248.026 271.469 C 248.026 271.232,247.594 271.645,244.238 275.082 M231.408 281.257 C 230.595 282.089,229.930 282.509,229.614 282.389 C 229.208 282.234,229.192 282.278,229.529 282.618 C 229.867 282.959,230.241 282.744,231.498 281.486 C 232.352 280.633,232.972 279.934,232.875 279.934 C 232.778 279.934,232.118 280.529,231.408 281.257 M234.205 285.444 L 230.428 289.309 234.293 285.532 C 236.419 283.454,238.158 281.715,238.158 281.667 C 238.158 281.430,237.714 281.854,234.205 285.444 M178.276 310.938 C 179.639 312.390,179.934 312.651,179.934 312.404 C 179.934 312.351,179.231 311.648,178.372 310.842 L 176.809 309.375 178.276 310.938 M219.881 312.582 L 218.914 313.651 219.984 312.685 C 220.572 312.154,221.053 311.673,221.053 311.616 C 221.053 311.362,220.781 311.586,219.881 312.582 " stroke="none" fill="#6c6c6c" fill-rule="evenodd"></path></g></svg>