<?xml version="1.0" encoding="UTF-8"?>
<svg xmlns="http://www.w3.org/2000/svg" xmlns:xlink="http://www.w3.org/1999/xlink" width="498pt" height="373pt" viewBox="0 0 498 373" version="1.1">
<g id="surface1">
<path style=" stroke:none;fill-rule:nonzero;fill:rgb(0%,0%,0%);fill-opacity:1;" d="M 141.335938 100.300781 L 141.921875 142.03125 L 162.28125 142.617188 L 182.445312 143.207031 L 181.269531 213.144531 C 180.484375 251.539062 179.3125 285.039062 178.722656 287.585938 L 177.746094 292.09375 L 228.835938 290.71875 L 279.929688 289.347656 L 279.929688 313.445312 L 346.484375 313.445312 L 346.484375 256.632812 L 280.125 256.632812 L 279.539062 269.953125 L 278.949219 283.082031 L 232.949219 284.253906 C 207.695312 284.84375 186.75 285.234375 186.359375 284.84375 C 185.96875 284.648438 186.359375 263.292969 187.140625 237.238281 L 188.511719 190.027344 L 217.289062 190.027344 C 233.144531 190.027344 254.089844 190.613281 263.878906 191.203125 L 281.691406 192.574219 L 282.277344 200.605469 L 282.867188 208.636719 L 314.773438 209.226562 L 346.679688 209.617188 L 346.09375 179.839844 L 345.507812 149.867188 L 282.867188 149.867188 L 282.277344 168.28125 L 281.691406 186.5 L 275.621094 185.324219 C 272.292969 184.738281 251.347656 184.148438 228.835938 184.148438 L 187.925781 184.148438 L 187.925781 143.207031 L 213.960938 142.617188 L 239.800781 142.03125 L 239.800781 59.75 L 190.273438 59.164062 L 140.945312 58.769531 Z M 232.949219 100.890625 L 232.949219 135.171875 L 148.773438 135.171875 L 148.773438 66.605469 L 232.949219 66.605469 Z M 338.65625 180.230469 L 338.65625 203.738281 L 289.71875 203.738281 L 289.71875 156.722656 L 338.65625 156.722656 Z M 338.65625 284.058594 L 338.65625 305.609375 L 285.800781 305.609375 L 285.800781 262.511719 L 338.65625 262.511719 Z M 338.65625 284.058594 "/>
</g>
</svg>
